<svg width="750" height="334" viewBox="0 0 750 334" fill="none" xmlns="http://www.w3.org/2000/svg">
<rect width="750" height="334" fill="white"/>
<path d="M72.704 137.128C71.3387 137.128 70.3253 136.776 69.664 136.072C69.0027 135.368 68.672 134.301 68.672 132.872C68.672 132.157 68.752 131.528 68.912 130.984C69.072 130.44 69.3173 129.987 69.648 129.624C69.9893 129.251 70.416 128.973 70.928 128.792C71.4507 128.6 72.0693 128.504 72.784 128.504C73.168 128.504 73.5627 128.547 73.968 128.632C74.384 128.707 74.7307 128.829 75.008 129C75.296 129.16 75.44 129.363 75.44 129.608C75.44 129.704 75.3867 129.853 75.28 130.056C75.184 130.248 75.0667 130.429 74.928 130.6C74.8 130.76 74.688 130.84 74.592 130.84C74.56 130.84 74.5173 130.829 74.464 130.808C74.4213 130.787 74.368 130.76 74.304 130.728C74.1653 130.653 73.984 130.579 73.76 130.504C73.536 130.419 73.2533 130.376 72.912 130.376C72.272 130.376 71.808 130.579 71.52 130.984C71.2427 131.379 71.104 131.987 71.104 132.808C71.104 133.629 71.2373 134.243 71.504 134.648C71.7707 135.053 72.208 135.256 72.816 135.256C73.1893 135.256 73.504 135.213 73.76 135.128C74.016 135.032 74.224 134.952 74.384 134.888C74.448 134.867 74.5013 134.845 74.544 134.824C74.5973 134.803 74.64 134.792 74.672 134.792C74.7893 134.792 74.912 134.872 75.04 135.032C75.168 135.192 75.2747 135.368 75.36 135.56C75.456 135.752 75.504 135.901 75.504 136.008C75.504 136.232 75.3867 136.419 75.152 136.568C74.9173 136.707 74.6347 136.819 74.304 136.904C73.9733 136.989 73.6533 137.048 73.344 137.08C73.0453 137.112 72.832 137.128 72.704 137.128ZM80.3256 137.128C79.0563 137.128 78.091 136.755 77.4296 136.008C76.7683 135.261 76.4376 134.195 76.4376 132.808C76.4376 131.411 76.7683 130.344 77.4296 129.608C78.091 128.872 79.0563 128.504 80.3256 128.504C81.595 128.504 82.555 128.872 83.2056 129.608C83.867 130.344 84.1976 131.411 84.1976 132.808C84.1976 134.195 83.867 135.261 83.2056 136.008C82.555 136.755 81.595 137.128 80.3256 137.128ZM80.3256 135.256C80.8376 135.256 81.211 135.048 81.4456 134.632C81.6803 134.216 81.7976 133.608 81.7976 132.808C81.7976 132.008 81.6803 131.405 81.4456 131C81.211 130.584 80.8376 130.376 80.3256 130.376C79.8136 130.376 79.435 130.584 79.1896 131C78.955 131.405 78.8376 132.008 78.8376 132.808C78.8376 133.608 78.955 134.216 79.1896 134.632C79.435 135.048 79.8136 135.256 80.3256 135.256ZM88.219 137.128C87.8457 137.128 87.5097 137.08 87.211 136.984C86.923 136.877 86.6777 136.717 86.475 136.504C86.283 136.291 86.1337 136.024 86.027 135.704C85.931 135.373 85.883 134.984 85.883 134.536V125.448C85.883 125.107 86.203 124.936 86.843 124.936H87.291C87.931 124.936 88.251 125.107 88.251 125.448V134.568C88.251 134.803 88.2937 134.979 88.379 135.096C88.475 135.203 88.6243 135.256 88.827 135.256C88.9017 135.256 88.9817 135.245 89.067 135.224C89.1523 135.203 89.2163 135.192 89.259 135.192C89.3657 135.192 89.4563 135.283 89.531 135.464C89.6057 135.635 89.659 135.816 89.691 136.008C89.7337 136.189 89.755 136.301 89.755 136.344C89.755 136.589 89.659 136.771 89.467 136.888C89.2857 136.995 89.0723 137.059 88.827 137.08C88.5923 137.112 88.3897 137.128 88.219 137.128ZM93.6538 137.128C92.3844 137.128 91.4191 136.755 90.7578 136.008C90.0964 135.261 89.7658 134.195 89.7658 132.808C89.7658 131.411 90.0964 130.344 90.7578 129.608C91.4191 128.872 92.3844 128.504 93.6538 128.504C94.9231 128.504 95.8831 128.872 96.5338 129.608C97.1951 130.344 97.5258 131.411 97.5258 132.808C97.5258 134.195 97.1951 135.261 96.5338 136.008C95.8831 136.755 94.9231 137.128 93.6538 137.128ZM93.6538 135.256C94.1658 135.256 94.5391 135.048 94.7738 134.632C95.0084 134.216 95.1258 133.608 95.1258 132.808C95.1258 132.008 95.0084 131.405 94.7738 131C94.5391 130.584 94.1658 130.376 93.6538 130.376C93.1418 130.376 92.7631 130.584 92.5178 131C92.2831 131.405 92.1658 132.008 92.1658 132.808C92.1658 133.608 92.2831 134.216 92.5178 134.632C92.7631 135.048 93.1418 135.256 93.6538 135.256ZM100.155 137.032C99.5151 137.032 99.1951 136.861 99.1951 136.52V131.448C99.1951 130.915 99.1791 130.504 99.1471 130.216C99.1151 129.928 99.0831 129.715 99.0511 129.576C99.0191 129.427 99.0031 129.299 99.0031 129.192C99.0031 129.096 99.0725 129.016 99.2111 128.952C99.3605 128.888 99.5365 128.835 99.7391 128.792C99.9525 128.749 100.155 128.723 100.347 128.712C100.55 128.691 100.699 128.68 100.795 128.68C100.966 128.68 101.088 128.739 101.163 128.856C101.248 128.973 101.307 129.112 101.339 129.272C101.371 129.432 101.403 129.581 101.435 129.72C101.606 129.411 101.824 129.133 102.091 128.888C102.358 128.632 102.72 128.504 103.179 128.504C103.574 128.504 103.824 128.584 103.931 128.744C104.038 128.904 104.091 129.112 104.091 129.368C104.091 129.464 104.07 129.624 104.027 129.848C103.995 130.061 103.942 130.259 103.867 130.44C103.792 130.621 103.702 130.712 103.595 130.712C103.488 130.712 103.376 130.691 103.259 130.648C103.142 130.605 103.003 130.584 102.843 130.584C102.63 130.584 102.438 130.632 102.267 130.728C102.096 130.813 101.952 130.92 101.835 131.048C101.718 131.165 101.627 131.277 101.563 131.384V136.52C101.563 136.861 101.243 137.032 100.603 137.032H100.155ZM109.026 132.712C108.813 132.712 108.706 132.552 108.706 132.232V132.024C108.706 131.704 108.813 131.544 109.026 131.544H115.746C115.96 131.544 116.066 131.704 116.066 132.024V132.232C116.066 132.552 115.96 132.712 115.746 132.712H109.026ZM109.026 135.336C108.813 135.336 108.706 135.176 108.706 134.856V134.648C108.706 134.328 108.813 134.168 109.026 134.168H115.746C115.96 134.168 116.066 134.328 116.066 134.648V134.856C116.066 135.176 115.96 135.336 115.746 135.336H109.026ZM124.303 137.032C124.143 137.032 124.004 137.016 123.887 136.984C123.77 136.941 123.695 136.872 123.663 136.776L121.087 129.08C121.076 129.059 121.066 129.027 121.055 128.984C121.044 128.941 121.039 128.904 121.039 128.872C121.039 128.691 121.268 128.6 121.727 128.6H121.807C121.967 128.6 122.106 128.621 122.223 128.664C122.34 128.696 122.415 128.76 122.447 128.856L124.079 133.96C124.175 134.28 124.271 134.627 124.367 135C124.463 135.363 124.543 135.683 124.607 135.96H124.671C124.735 135.683 124.815 135.352 124.911 134.968C125.007 134.573 125.13 134.152 125.279 133.704L126.831 128.856C126.863 128.76 126.938 128.696 127.055 128.664C127.172 128.621 127.316 128.6 127.487 128.6H127.535C127.93 128.6 128.127 128.691 128.127 128.872C128.127 128.925 128.111 129 128.079 129.096L125.503 136.776C125.471 136.872 125.396 136.941 125.279 136.984C125.162 137.016 125.023 137.032 124.863 137.032H124.303ZM133.113 137.096C131.79 137.096 130.803 136.749 130.153 136.056C129.513 135.363 129.193 134.301 129.193 132.872C129.193 131.923 129.331 131.128 129.609 130.488C129.897 129.848 130.318 129.363 130.873 129.032C131.427 128.701 132.11 128.536 132.921 128.536C133.657 128.536 134.265 128.696 134.745 129.016C135.235 129.336 135.603 129.805 135.849 130.424C136.094 131.043 136.217 131.805 136.217 132.712C136.217 132.776 136.185 132.861 136.121 132.968C136.067 133.064 135.998 133.155 135.913 133.24C135.827 133.325 135.753 133.368 135.689 133.368H130.633C130.697 134.253 130.926 134.904 131.321 135.32C131.715 135.736 132.307 135.944 133.097 135.944C133.566 135.944 133.961 135.891 134.281 135.784C134.611 135.667 134.873 135.555 135.065 135.448C135.257 135.331 135.379 135.272 135.433 135.272C135.507 135.272 135.587 135.325 135.673 135.432C135.758 135.539 135.833 135.656 135.897 135.784C135.961 135.912 135.993 136.008 135.993 136.072C135.993 136.168 135.918 136.275 135.769 136.392C135.619 136.509 135.411 136.621 135.145 136.728C134.889 136.835 134.585 136.925 134.233 137C133.891 137.064 133.518 137.096 133.113 137.096ZM130.633 132.216H134.793C134.793 131.373 134.633 130.744 134.313 130.328C133.993 129.901 133.513 129.688 132.873 129.688C132.179 129.688 131.646 129.901 131.273 130.328C130.899 130.744 130.686 131.373 130.633 132.216ZM139.018 137.032C138.591 137.032 138.378 136.915 138.378 136.68V131.064C138.378 130.627 138.362 130.264 138.33 129.976C138.298 129.688 138.266 129.469 138.234 129.32C138.202 129.16 138.186 129.069 138.186 129.048C138.186 128.973 138.218 128.915 138.282 128.872C138.356 128.819 138.442 128.781 138.538 128.76C138.634 128.728 138.73 128.707 138.826 128.696C138.922 128.685 138.996 128.68 139.049 128.68C139.178 128.68 139.274 128.739 139.338 128.856C139.412 128.973 139.466 129.117 139.498 129.288C139.54 129.448 139.578 129.597 139.61 129.736C139.887 129.352 140.18 129.059 140.49 128.856C140.81 128.643 141.135 128.536 141.466 128.536C141.775 128.536 142.004 128.589 142.154 128.696C142.314 128.792 142.394 128.947 142.394 129.16C142.394 129.256 142.378 129.373 142.346 129.512C142.324 129.651 142.287 129.773 142.234 129.88C142.191 129.976 142.138 130.024 142.074 130.024C141.967 130.024 141.86 129.997 141.754 129.944C141.658 129.88 141.471 129.848 141.194 129.848C140.916 129.848 140.666 129.928 140.442 130.088C140.218 130.248 140.042 130.413 139.914 130.584C139.786 130.744 139.722 130.824 139.722 130.824V136.68C139.722 136.915 139.508 137.032 139.082 137.032H139.018ZM146.42 137.096C145.78 137.096 145.226 136.915 144.756 136.552C144.298 136.179 143.94 135.672 143.684 135.032C143.439 134.381 143.316 133.645 143.316 132.824C143.316 131.427 143.62 130.365 144.228 129.64C144.836 128.904 145.615 128.536 146.564 128.536C147.066 128.536 147.492 128.611 147.844 128.76C148.207 128.909 148.543 129.107 148.852 129.352V125.32C148.852 125.085 149.066 124.968 149.492 124.968H149.556C149.983 124.968 150.196 125.085 150.196 125.32V134.632C150.196 135.069 150.212 135.432 150.244 135.72C150.276 136.008 150.308 136.227 150.34 136.376C150.372 136.525 150.388 136.616 150.388 136.648C150.388 136.723 150.351 136.787 150.276 136.84C150.212 136.883 150.132 136.92 150.036 136.952C149.94 136.973 149.844 136.989 149.748 137C149.652 137.011 149.578 137.016 149.524 137.016C149.396 137.016 149.295 136.957 149.22 136.84C149.156 136.712 149.103 136.563 149.06 136.392C149.028 136.211 148.996 136.045 148.964 135.896C148.57 136.301 148.159 136.605 147.732 136.808C147.316 137 146.879 137.096 146.42 137.096ZM146.692 135.928C147.044 135.928 147.407 135.837 147.78 135.656C148.164 135.464 148.522 135.187 148.852 134.824V130.44C148.564 130.195 148.255 130.013 147.924 129.896C147.594 129.779 147.247 129.72 146.884 129.72C146.17 129.72 145.631 129.981 145.268 130.504C144.906 131.016 144.724 131.747 144.724 132.696C144.724 133.731 144.895 134.531 145.236 135.096C145.578 135.651 146.063 135.928 146.692 135.928ZM156.331 137.096C155.009 137.096 154.022 136.749 153.371 136.056C152.731 135.363 152.411 134.301 152.411 132.872C152.411 131.923 152.55 131.128 152.827 130.488C153.115 129.848 153.537 129.363 154.091 129.032C154.646 128.701 155.329 128.536 156.139 128.536C156.875 128.536 157.483 128.696 157.963 129.016C158.454 129.336 158.822 129.805 159.067 130.424C159.313 131.043 159.435 131.805 159.435 132.712C159.435 132.776 159.403 132.861 159.339 132.968C159.286 133.064 159.217 133.155 159.131 133.24C159.046 133.325 158.971 133.368 158.907 133.368H153.851C153.915 134.253 154.145 134.904 154.539 135.32C154.934 135.736 155.526 135.944 156.315 135.944C156.785 135.944 157.179 135.891 157.499 135.784C157.83 135.667 158.091 135.555 158.283 135.448C158.475 135.331 158.598 135.272 158.651 135.272C158.726 135.272 158.806 135.325 158.891 135.432C158.977 135.539 159.051 135.656 159.115 135.784C159.179 135.912 159.211 136.008 159.211 136.072C159.211 136.168 159.137 136.275 158.987 136.392C158.838 136.509 158.63 136.621 158.363 136.728C158.107 136.835 157.803 136.925 157.451 137C157.11 137.064 156.737 137.096 156.331 137.096ZM153.851 132.216H158.011C158.011 131.373 157.851 130.744 157.531 130.328C157.211 129.901 156.731 129.688 156.091 129.688C155.398 129.688 154.865 129.901 154.491 130.328C154.118 130.744 153.905 131.373 153.851 132.216Z" fill="black"/>
<path d="M551.704 137.128C550.339 137.128 549.325 136.776 548.664 136.072C548.003 135.368 547.672 134.301 547.672 132.872C547.672 132.157 547.752 131.528 547.912 130.984C548.072 130.44 548.317 129.987 548.648 129.624C548.989 129.251 549.416 128.973 549.928 128.792C550.451 128.6 551.069 128.504 551.784 128.504C552.168 128.504 552.563 128.547 552.968 128.632C553.384 128.707 553.731 128.829 554.008 129C554.296 129.16 554.44 129.363 554.44 129.608C554.44 129.704 554.387 129.853 554.28 130.056C554.184 130.248 554.067 130.429 553.928 130.6C553.8 130.76 553.688 130.84 553.592 130.84C553.56 130.84 553.517 130.829 553.464 130.808C553.421 130.787 553.368 130.76 553.304 130.728C553.165 130.653 552.984 130.579 552.76 130.504C552.536 130.419 552.253 130.376 551.912 130.376C551.272 130.376 550.808 130.579 550.52 130.984C550.243 131.379 550.104 131.987 550.104 132.808C550.104 133.629 550.237 134.243 550.504 134.648C550.771 135.053 551.208 135.256 551.816 135.256C552.189 135.256 552.504 135.213 552.76 135.128C553.016 135.032 553.224 134.952 553.384 134.888C553.448 134.867 553.501 134.845 553.544 134.824C553.597 134.803 553.64 134.792 553.672 134.792C553.789 134.792 553.912 134.872 554.04 135.032C554.168 135.192 554.275 135.368 554.36 135.56C554.456 135.752 554.504 135.901 554.504 136.008C554.504 136.232 554.387 136.419 554.152 136.568C553.917 136.707 553.635 136.819 553.304 136.904C552.973 136.989 552.653 137.048 552.344 137.08C552.045 137.112 551.832 137.128 551.704 137.128ZM559.326 137.128C558.056 137.128 557.091 136.755 556.43 136.008C555.768 135.261 555.438 134.195 555.438 132.808C555.438 131.411 555.768 130.344 556.43 129.608C557.091 128.872 558.056 128.504 559.326 128.504C560.595 128.504 561.555 128.872 562.206 129.608C562.867 130.344 563.198 131.411 563.198 132.808C563.198 134.195 562.867 135.261 562.206 136.008C561.555 136.755 560.595 137.128 559.326 137.128ZM559.326 135.256C559.838 135.256 560.211 135.048 560.446 134.632C560.68 134.216 560.798 133.608 560.798 132.808C560.798 132.008 560.68 131.405 560.446 131C560.211 130.584 559.838 130.376 559.326 130.376C558.814 130.376 558.435 130.584 558.19 131C557.955 131.405 557.838 132.008 557.838 132.808C557.838 133.608 557.955 134.216 558.19 134.632C558.435 135.048 558.814 135.256 559.326 135.256ZM567.219 137.128C566.846 137.128 566.51 137.08 566.211 136.984C565.923 136.877 565.678 136.717 565.475 136.504C565.283 136.291 565.134 136.024 565.027 135.704C564.931 135.373 564.883 134.984 564.883 134.536V125.448C564.883 125.107 565.203 124.936 565.843 124.936H566.291C566.931 124.936 567.251 125.107 567.251 125.448V134.568C567.251 134.803 567.294 134.979 567.379 135.096C567.475 135.203 567.624 135.256 567.827 135.256C567.902 135.256 567.982 135.245 568.067 135.224C568.152 135.203 568.216 135.192 568.259 135.192C568.366 135.192 568.456 135.283 568.531 135.464C568.606 135.635 568.659 135.816 568.691 136.008C568.734 136.189 568.755 136.301 568.755 136.344C568.755 136.589 568.659 136.771 568.467 136.888C568.286 136.995 568.072 137.059 567.827 137.08C567.592 137.112 567.39 137.128 567.219 137.128ZM572.654 137.128C571.384 137.128 570.419 136.755 569.758 136.008C569.096 135.261 568.766 134.195 568.766 132.808C568.766 131.411 569.096 130.344 569.758 129.608C570.419 128.872 571.384 128.504 572.654 128.504C573.923 128.504 574.883 128.872 575.534 129.608C576.195 130.344 576.526 131.411 576.526 132.808C576.526 134.195 576.195 135.261 575.534 136.008C574.883 136.755 573.923 137.128 572.654 137.128ZM572.654 135.256C573.166 135.256 573.539 135.048 573.774 134.632C574.008 134.216 574.126 133.608 574.126 132.808C574.126 132.008 574.008 131.405 573.774 131C573.539 130.584 573.166 130.376 572.654 130.376C572.142 130.376 571.763 130.584 571.518 131C571.283 131.405 571.166 132.008 571.166 132.808C571.166 133.608 571.283 134.216 571.518 134.632C571.763 135.048 572.142 135.256 572.654 135.256ZM579.155 137.032C578.515 137.032 578.195 136.861 578.195 136.52V131.448C578.195 130.915 578.179 130.504 578.147 130.216C578.115 129.928 578.083 129.715 578.051 129.576C578.019 129.427 578.003 129.299 578.003 129.192C578.003 129.096 578.072 129.016 578.211 128.952C578.36 128.888 578.536 128.835 578.739 128.792C578.952 128.749 579.155 128.723 579.347 128.712C579.55 128.691 579.699 128.68 579.795 128.68C579.966 128.68 580.088 128.739 580.163 128.856C580.248 128.973 580.307 129.112 580.339 129.272C580.371 129.432 580.403 129.581 580.435 129.72C580.606 129.411 580.824 129.133 581.091 128.888C581.358 128.632 581.72 128.504 582.179 128.504C582.574 128.504 582.824 128.584 582.931 128.744C583.038 128.904 583.091 129.112 583.091 129.368C583.091 129.464 583.07 129.624 583.027 129.848C582.995 130.061 582.942 130.259 582.867 130.44C582.792 130.621 582.702 130.712 582.595 130.712C582.488 130.712 582.376 130.691 582.259 130.648C582.142 130.605 582.003 130.584 581.843 130.584C581.63 130.584 581.438 130.632 581.267 130.728C581.096 130.813 580.952 130.92 580.835 131.048C580.718 131.165 580.627 131.277 580.563 131.384V136.52C580.563 136.861 580.243 137.032 579.603 137.032H579.155ZM588.026 132.712C587.813 132.712 587.706 132.552 587.706 132.232V132.024C587.706 131.704 587.813 131.544 588.026 131.544H594.746C594.96 131.544 595.066 131.704 595.066 132.024V132.232C595.066 132.552 594.96 132.712 594.746 132.712H588.026ZM588.026 135.336C587.813 135.336 587.706 135.176 587.706 134.856V134.648C587.706 134.328 587.813 134.168 588.026 134.168H594.746C594.96 134.168 595.066 134.328 595.066 134.648V134.856C595.066 135.176 594.96 135.336 594.746 135.336H588.026ZM603.303 137.032C603.143 137.032 603.004 137.016 602.887 136.984C602.77 136.941 602.695 136.872 602.663 136.776L600.087 129.08C600.076 129.059 600.066 129.027 600.055 128.984C600.044 128.941 600.039 128.904 600.039 128.872C600.039 128.691 600.268 128.6 600.727 128.6H600.807C600.967 128.6 601.106 128.621 601.223 128.664C601.34 128.696 601.415 128.76 601.447 128.856L603.079 133.96C603.175 134.28 603.271 134.627 603.367 135C603.463 135.363 603.543 135.683 603.607 135.96H603.671C603.735 135.683 603.815 135.352 603.911 134.968C604.007 134.573 604.13 134.152 604.279 133.704L605.831 128.856C605.863 128.76 605.938 128.696 606.055 128.664C606.172 128.621 606.316 128.6 606.487 128.6H606.535C606.93 128.6 607.127 128.691 607.127 128.872C607.127 128.925 607.111 129 607.079 129.096L604.503 136.776C604.471 136.872 604.396 136.941 604.279 136.984C604.162 137.016 604.023 137.032 603.863 137.032H603.303ZM612.113 137.096C610.79 137.096 609.803 136.749 609.153 136.056C608.513 135.363 608.193 134.301 608.193 132.872C608.193 131.923 608.331 131.128 608.609 130.488C608.897 129.848 609.318 129.363 609.873 129.032C610.427 128.701 611.11 128.536 611.921 128.536C612.657 128.536 613.265 128.696 613.745 129.016C614.235 129.336 614.603 129.805 614.849 130.424C615.094 131.043 615.217 131.805 615.217 132.712C615.217 132.776 615.185 132.861 615.121 132.968C615.067 133.064 614.998 133.155 614.913 133.24C614.827 133.325 614.753 133.368 614.689 133.368H609.633C609.697 134.253 609.926 134.904 610.321 135.32C610.715 135.736 611.307 135.944 612.097 135.944C612.566 135.944 612.961 135.891 613.281 135.784C613.611 135.667 613.873 135.555 614.065 135.448C614.257 135.331 614.379 135.272 614.433 135.272C614.507 135.272 614.587 135.325 614.673 135.432C614.758 135.539 614.833 135.656 614.897 135.784C614.961 135.912 614.993 136.008 614.993 136.072C614.993 136.168 614.918 136.275 614.769 136.392C614.619 136.509 614.411 136.621 614.145 136.728C613.889 136.835 613.585 136.925 613.233 137C612.891 137.064 612.518 137.096 612.113 137.096ZM609.633 132.216H613.793C613.793 131.373 613.633 130.744 613.313 130.328C612.993 129.901 612.513 129.688 611.873 129.688C611.179 129.688 610.646 129.901 610.273 130.328C609.899 130.744 609.686 131.373 609.633 132.216ZM618.018 137.032C617.591 137.032 617.378 136.915 617.378 136.68V131.064C617.378 130.627 617.362 130.264 617.33 129.976C617.298 129.688 617.266 129.469 617.234 129.32C617.202 129.16 617.186 129.069 617.186 129.048C617.186 128.973 617.218 128.915 617.282 128.872C617.356 128.819 617.442 128.781 617.538 128.76C617.634 128.728 617.73 128.707 617.826 128.696C617.922 128.685 617.996 128.68 618.049 128.68C618.178 128.68 618.274 128.739 618.338 128.856C618.412 128.973 618.466 129.117 618.498 129.288C618.54 129.448 618.578 129.597 618.61 129.736C618.887 129.352 619.18 129.059 619.49 128.856C619.81 128.643 620.135 128.536 620.466 128.536C620.775 128.536 621.004 128.589 621.154 128.696C621.314 128.792 621.394 128.947 621.394 129.16C621.394 129.256 621.378 129.373 621.346 129.512C621.324 129.651 621.287 129.773 621.234 129.88C621.191 129.976 621.138 130.024 621.074 130.024C620.967 130.024 620.86 129.997 620.754 129.944C620.658 129.88 620.471 129.848 620.194 129.848C619.916 129.848 619.666 129.928 619.442 130.088C619.218 130.248 619.042 130.413 618.914 130.584C618.786 130.744 618.722 130.824 618.722 130.824V136.68C618.722 136.915 618.508 137.032 618.082 137.032H618.018ZM625.42 137.096C624.78 137.096 624.226 136.915 623.756 136.552C623.298 136.179 622.94 135.672 622.684 135.032C622.439 134.381 622.316 133.645 622.316 132.824C622.316 131.427 622.62 130.365 623.228 129.64C623.836 128.904 624.615 128.536 625.564 128.536C626.066 128.536 626.492 128.611 626.844 128.76C627.207 128.909 627.543 129.107 627.852 129.352V125.32C627.852 125.085 628.066 124.968 628.492 124.968H628.556C628.983 124.968 629.196 125.085 629.196 125.32V134.632C629.196 135.069 629.212 135.432 629.244 135.72C629.276 136.008 629.308 136.227 629.34 136.376C629.372 136.525 629.388 136.616 629.388 136.648C629.388 136.723 629.351 136.787 629.276 136.84C629.212 136.883 629.132 136.92 629.036 136.952C628.94 136.973 628.844 136.989 628.748 137C628.652 137.011 628.578 137.016 628.524 137.016C628.396 137.016 628.295 136.957 628.22 136.84C628.156 136.712 628.103 136.563 628.06 136.392C628.028 136.211 627.996 136.045 627.964 135.896C627.57 136.301 627.159 136.605 626.732 136.808C626.316 137 625.879 137.096 625.42 137.096ZM625.692 135.928C626.044 135.928 626.407 135.837 626.78 135.656C627.164 135.464 627.522 135.187 627.852 134.824V130.44C627.564 130.195 627.255 130.013 626.924 129.896C626.594 129.779 626.247 129.72 625.884 129.72C625.17 129.72 624.631 129.981 624.268 130.504C623.906 131.016 623.724 131.747 623.724 132.696C623.724 133.731 623.895 134.531 624.236 135.096C624.578 135.651 625.063 135.928 625.692 135.928ZM635.331 137.096C634.009 137.096 633.022 136.749 632.371 136.056C631.731 135.363 631.411 134.301 631.411 132.872C631.411 131.923 631.55 131.128 631.827 130.488C632.115 129.848 632.537 129.363 633.091 129.032C633.646 128.701 634.329 128.536 635.139 128.536C635.875 128.536 636.483 128.696 636.963 129.016C637.454 129.336 637.822 129.805 638.067 130.424C638.313 131.043 638.435 131.805 638.435 132.712C638.435 132.776 638.403 132.861 638.339 132.968C638.286 133.064 638.217 133.155 638.131 133.24C638.046 133.325 637.971 133.368 637.907 133.368H632.851C632.915 134.253 633.145 134.904 633.539 135.32C633.934 135.736 634.526 135.944 635.315 135.944C635.785 135.944 636.179 135.891 636.499 135.784C636.83 135.667 637.091 135.555 637.283 135.448C637.475 135.331 637.598 135.272 637.651 135.272C637.726 135.272 637.806 135.325 637.891 135.432C637.977 135.539 638.051 135.656 638.115 135.784C638.179 135.912 638.211 136.008 638.211 136.072C638.211 136.168 638.137 136.275 637.987 136.392C637.838 136.509 637.63 136.621 637.363 136.728C637.107 136.835 636.803 136.925 636.451 137C636.11 137.064 635.737 137.096 635.331 137.096ZM632.851 132.216H637.011C637.011 131.373 636.851 130.744 636.531 130.328C636.211 129.901 635.731 129.688 635.091 129.688C634.398 129.688 633.865 129.901 633.491 130.328C633.118 130.744 632.905 131.373 632.851 132.216Z" fill="black"/>
<path d="M703.328 140.032C702.688 140.032 702.368 139.861 702.368 139.52V138.048C702.368 137.707 702.688 137.536 703.328 137.536H703.84C704.48 137.536 704.8 137.707 704.8 138.048V139.52C704.8 139.861 704.48 140.032 703.84 140.032H703.328ZM706.5 140.032C705.86 140.032 705.54 139.861 705.54 139.52V138.048C705.54 137.707 705.86 137.536 706.5 137.536H707.012C707.652 137.536 707.972 137.707 707.972 138.048V139.52C707.972 139.861 707.652 140.032 707.012 140.032H706.5ZM709.672 140.032C709.032 140.032 708.712 139.861 708.712 139.52V138.048C708.712 137.707 709.032 137.536 709.672 137.536H710.184C710.824 137.536 711.144 137.707 711.144 138.048V139.52C711.144 139.861 710.824 140.032 710.184 140.032H709.672Z" fill="black"/>
<path d="M228.704 137.128C227.339 137.128 226.325 136.776 225.664 136.072C225.003 135.368 224.672 134.301 224.672 132.872C224.672 132.157 224.752 131.528 224.912 130.984C225.072 130.44 225.317 129.987 225.648 129.624C225.989 129.251 226.416 128.973 226.928 128.792C227.451 128.6 228.069 128.504 228.784 128.504C229.168 128.504 229.563 128.547 229.968 128.632C230.384 128.707 230.731 128.829 231.008 129C231.296 129.16 231.44 129.363 231.44 129.608C231.44 129.704 231.387 129.853 231.28 130.056C231.184 130.248 231.067 130.429 230.928 130.6C230.8 130.76 230.688 130.84 230.592 130.84C230.56 130.84 230.517 130.829 230.464 130.808C230.421 130.787 230.368 130.76 230.304 130.728C230.165 130.653 229.984 130.579 229.76 130.504C229.536 130.419 229.253 130.376 228.912 130.376C228.272 130.376 227.808 130.579 227.52 130.984C227.243 131.379 227.104 131.987 227.104 132.808C227.104 133.629 227.237 134.243 227.504 134.648C227.771 135.053 228.208 135.256 228.816 135.256C229.189 135.256 229.504 135.213 229.76 135.128C230.016 135.032 230.224 134.952 230.384 134.888C230.448 134.867 230.501 134.845 230.544 134.824C230.597 134.803 230.64 134.792 230.672 134.792C230.789 134.792 230.912 134.872 231.04 135.032C231.168 135.192 231.275 135.368 231.36 135.56C231.456 135.752 231.504 135.901 231.504 136.008C231.504 136.232 231.387 136.419 231.152 136.568C230.917 136.707 230.635 136.819 230.304 136.904C229.973 136.989 229.653 137.048 229.344 137.08C229.045 137.112 228.832 137.128 228.704 137.128ZM236.326 137.128C235.056 137.128 234.091 136.755 233.43 136.008C232.768 135.261 232.438 134.195 232.438 132.808C232.438 131.411 232.768 130.344 233.43 129.608C234.091 128.872 235.056 128.504 236.326 128.504C237.595 128.504 238.555 128.872 239.206 129.608C239.867 130.344 240.198 131.411 240.198 132.808C240.198 134.195 239.867 135.261 239.206 136.008C238.555 136.755 237.595 137.128 236.326 137.128ZM236.326 135.256C236.838 135.256 237.211 135.048 237.446 134.632C237.68 134.216 237.798 133.608 237.798 132.808C237.798 132.008 237.68 131.405 237.446 131C237.211 130.584 236.838 130.376 236.326 130.376C235.814 130.376 235.435 130.584 235.19 131C234.955 131.405 234.838 132.008 234.838 132.808C234.838 133.608 234.955 134.216 235.19 134.632C235.435 135.048 235.814 135.256 236.326 135.256ZM244.219 137.128C243.846 137.128 243.51 137.08 243.211 136.984C242.923 136.877 242.678 136.717 242.475 136.504C242.283 136.291 242.134 136.024 242.027 135.704C241.931 135.373 241.883 134.984 241.883 134.536V125.448C241.883 125.107 242.203 124.936 242.843 124.936H243.291C243.931 124.936 244.251 125.107 244.251 125.448V134.568C244.251 134.803 244.294 134.979 244.379 135.096C244.475 135.203 244.624 135.256 244.827 135.256C244.902 135.256 244.982 135.245 245.067 135.224C245.152 135.203 245.216 135.192 245.259 135.192C245.366 135.192 245.456 135.283 245.531 135.464C245.606 135.635 245.659 135.816 245.691 136.008C245.734 136.189 245.755 136.301 245.755 136.344C245.755 136.589 245.659 136.771 245.467 136.888C245.286 136.995 245.072 137.059 244.827 137.08C244.592 137.112 244.39 137.128 244.219 137.128ZM249.654 137.128C248.384 137.128 247.419 136.755 246.758 136.008C246.096 135.261 245.766 134.195 245.766 132.808C245.766 131.411 246.096 130.344 246.758 129.608C247.419 128.872 248.384 128.504 249.654 128.504C250.923 128.504 251.883 128.872 252.534 129.608C253.195 130.344 253.526 131.411 253.526 132.808C253.526 134.195 253.195 135.261 252.534 136.008C251.883 136.755 250.923 137.128 249.654 137.128ZM249.654 135.256C250.166 135.256 250.539 135.048 250.774 134.632C251.008 134.216 251.126 133.608 251.126 132.808C251.126 132.008 251.008 131.405 250.774 131C250.539 130.584 250.166 130.376 249.654 130.376C249.142 130.376 248.763 130.584 248.518 131C248.283 131.405 248.166 132.008 248.166 132.808C248.166 133.608 248.283 134.216 248.518 134.632C248.763 135.048 249.142 135.256 249.654 135.256ZM256.155 137.032C255.515 137.032 255.195 136.861 255.195 136.52V131.448C255.195 130.915 255.179 130.504 255.147 130.216C255.115 129.928 255.083 129.715 255.051 129.576C255.019 129.427 255.003 129.299 255.003 129.192C255.003 129.096 255.072 129.016 255.211 128.952C255.36 128.888 255.536 128.835 255.739 128.792C255.952 128.749 256.155 128.723 256.347 128.712C256.55 128.691 256.699 128.68 256.795 128.68C256.966 128.68 257.088 128.739 257.163 128.856C257.248 128.973 257.307 129.112 257.339 129.272C257.371 129.432 257.403 129.581 257.435 129.72C257.606 129.411 257.824 129.133 258.091 128.888C258.358 128.632 258.72 128.504 259.179 128.504C259.574 128.504 259.824 128.584 259.931 128.744C260.038 128.904 260.091 129.112 260.091 129.368C260.091 129.464 260.07 129.624 260.027 129.848C259.995 130.061 259.942 130.259 259.867 130.44C259.792 130.621 259.702 130.712 259.595 130.712C259.488 130.712 259.376 130.691 259.259 130.648C259.142 130.605 259.003 130.584 258.843 130.584C258.63 130.584 258.438 130.632 258.267 130.728C258.096 130.813 257.952 130.92 257.835 131.048C257.718 131.165 257.627 131.277 257.563 131.384V136.52C257.563 136.861 257.243 137.032 256.603 137.032H256.155ZM265.026 132.712C264.813 132.712 264.706 132.552 264.706 132.232V132.024C264.706 131.704 264.813 131.544 265.026 131.544H271.746C271.96 131.544 272.066 131.704 272.066 132.024V132.232C272.066 132.552 271.96 132.712 271.746 132.712H265.026ZM265.026 135.336C264.813 135.336 264.706 135.176 264.706 134.856V134.648C264.706 134.328 264.813 134.168 265.026 134.168H271.746C271.96 134.168 272.066 134.328 272.066 134.648V134.856C272.066 135.176 271.96 135.336 271.746 135.336H265.026ZM280.223 137.096C279.444 137.096 278.794 136.904 278.271 136.52C277.748 136.125 277.487 135.517 277.487 134.696C277.487 134.024 277.647 133.496 277.967 133.112C278.287 132.717 278.708 132.429 279.231 132.248C279.754 132.056 280.324 131.933 280.943 131.88C281.572 131.827 282.191 131.795 282.799 131.784V131.032C282.799 130.669 282.671 130.355 282.415 130.088C282.159 129.821 281.7 129.688 281.039 129.688C280.559 129.688 280.138 129.747 279.775 129.864C279.423 129.971 279.14 130.083 278.927 130.2C278.724 130.307 278.596 130.36 278.543 130.36C278.468 130.36 278.388 130.307 278.303 130.2C278.218 130.093 278.143 129.976 278.079 129.848C278.015 129.709 277.983 129.613 277.983 129.56C277.983 129.421 278.122 129.272 278.399 129.112C278.676 128.952 279.044 128.819 279.503 128.712C279.962 128.595 280.458 128.536 280.991 128.536C281.652 128.536 282.218 128.637 282.687 128.84C283.156 129.032 283.514 129.315 283.759 129.688C284.015 130.061 284.143 130.515 284.143 131.048V134.632C284.143 135.069 284.159 135.432 284.191 135.72C284.223 136.008 284.255 136.227 284.287 136.376C284.319 136.525 284.335 136.616 284.335 136.648C284.335 136.723 284.298 136.787 284.223 136.84C284.159 136.883 284.079 136.92 283.983 136.952C283.887 136.973 283.791 136.989 283.695 137C283.599 137.011 283.524 137.016 283.471 137.016C283.343 137.016 283.242 136.957 283.167 136.84C283.103 136.712 283.05 136.563 283.007 136.392C282.975 136.211 282.943 136.045 282.911 135.896C282.708 136.12 282.474 136.323 282.207 136.504C281.94 136.685 281.642 136.829 281.311 136.936C280.991 137.043 280.628 137.096 280.223 137.096ZM280.287 135.928C280.874 135.928 281.359 135.816 281.743 135.592C282.127 135.368 282.479 135.112 282.799 134.824V132.936C282.383 132.936 281.951 132.952 281.503 132.984C281.055 133.005 280.634 133.064 280.239 133.16C279.844 133.256 279.524 133.421 279.279 133.656C279.044 133.88 278.927 134.2 278.927 134.616C278.927 135.043 279.039 135.368 279.263 135.592C279.498 135.816 279.839 135.928 280.287 135.928ZM287.422 137.032C286.995 137.032 286.782 136.915 286.782 136.68V131.064C286.782 130.627 286.766 130.264 286.734 129.976C286.702 129.688 286.67 129.469 286.638 129.32C286.606 129.16 286.59 129.069 286.59 129.048C286.59 128.973 286.622 128.915 286.686 128.872C286.761 128.819 286.846 128.781 286.942 128.76C287.038 128.728 287.134 128.707 287.23 128.696C287.326 128.685 287.401 128.68 287.454 128.68C287.582 128.68 287.678 128.739 287.742 128.856C287.817 128.973 287.87 129.117 287.902 129.288C287.945 129.448 287.982 129.597 288.014 129.736C288.281 129.427 288.622 129.149 289.038 128.904C289.465 128.659 289.934 128.536 290.446 128.536C290.713 128.536 290.99 128.573 291.278 128.648C291.577 128.712 291.854 128.84 292.11 129.032C292.377 129.224 292.585 129.501 292.734 129.864C293.043 129.501 293.417 129.192 293.854 128.936C294.302 128.669 294.777 128.536 295.278 128.536C295.534 128.536 295.806 128.573 296.094 128.648C296.382 128.712 296.654 128.835 296.91 129.016C297.177 129.197 297.39 129.459 297.55 129.8C297.71 130.141 297.79 130.584 297.79 131.128V136.68C297.79 136.915 297.577 137.032 297.15 137.032H297.086C296.659 137.032 296.446 136.915 296.446 136.68V131.256C296.446 130.787 296.318 130.413 296.062 130.136C295.806 129.848 295.422 129.704 294.91 129.704C294.622 129.704 294.355 129.763 294.11 129.88C293.875 129.997 293.662 130.136 293.47 130.296C293.289 130.445 293.145 130.584 293.038 130.712C292.942 130.84 292.883 130.915 292.862 130.936L292.846 130.392C292.899 130.509 292.931 130.637 292.942 130.776C292.953 130.904 292.958 131.027 292.958 131.144V136.68C292.958 136.915 292.745 137.032 292.318 137.032H292.254C291.827 137.032 291.614 136.915 291.614 136.68V131.256C291.614 130.787 291.486 130.413 291.23 130.136C290.974 129.848 290.59 129.704 290.078 129.704C289.79 129.704 289.523 129.763 289.278 129.88C289.043 129.987 288.835 130.115 288.654 130.264C288.483 130.403 288.35 130.531 288.254 130.648C288.169 130.755 288.126 130.808 288.126 130.808V136.68C288.126 136.915 287.913 137.032 287.486 137.032H287.422ZM302.504 137.096C301.726 137.096 301.075 136.904 300.552 136.52C300.03 136.125 299.768 135.517 299.768 134.696C299.768 134.024 299.928 133.496 300.248 133.112C300.568 132.717 300.99 132.429 301.512 132.248C302.035 132.056 302.606 131.933 303.224 131.88C303.854 131.827 304.472 131.795 305.08 131.784V131.032C305.08 130.669 304.952 130.355 304.696 130.088C304.44 129.821 303.982 129.688 303.32 129.688C302.84 129.688 302.419 129.747 302.056 129.864C301.704 129.971 301.422 130.083 301.208 130.2C301.006 130.307 300.878 130.36 300.824 130.36C300.75 130.36 300.67 130.307 300.584 130.2C300.499 130.093 300.424 129.976 300.36 129.848C300.296 129.709 300.264 129.613 300.264 129.56C300.264 129.421 300.403 129.272 300.68 129.112C300.958 128.952 301.326 128.819 301.784 128.712C302.243 128.595 302.739 128.536 303.272 128.536C303.934 128.536 304.499 128.637 304.968 128.84C305.438 129.032 305.795 129.315 306.04 129.688C306.296 130.061 306.424 130.515 306.424 131.048V134.632C306.424 135.069 306.44 135.432 306.472 135.72C306.504 136.008 306.536 136.227 306.568 136.376C306.6 136.525 306.616 136.616 306.616 136.648C306.616 136.723 306.579 136.787 306.504 136.84C306.44 136.883 306.36 136.92 306.264 136.952C306.168 136.973 306.072 136.989 305.976 137C305.88 137.011 305.806 137.016 305.752 137.016C305.624 137.016 305.523 136.957 305.448 136.84C305.384 136.712 305.331 136.563 305.288 136.392C305.256 136.211 305.224 136.045 305.192 135.896C304.99 136.12 304.755 136.323 304.488 136.504C304.222 136.685 303.923 136.829 303.592 136.936C303.272 137.043 302.91 137.096 302.504 137.096ZM302.568 135.928C303.155 135.928 303.64 135.816 304.024 135.592C304.408 135.368 304.76 135.112 305.08 134.824V132.936C304.664 132.936 304.232 132.952 303.784 132.984C303.336 133.005 302.915 133.064 302.52 133.16C302.126 133.256 301.806 133.421 301.56 133.656C301.326 133.88 301.208 134.2 301.208 134.616C301.208 135.043 301.32 135.368 301.544 135.592C301.779 135.816 302.12 135.928 302.568 135.928ZM309.783 137.032C309.356 137.032 309.143 136.915 309.143 136.68V131.064C309.143 130.627 309.127 130.264 309.095 129.976C309.063 129.688 309.031 129.469 308.999 129.32C308.967 129.16 308.951 129.069 308.951 129.048C308.951 128.973 308.983 128.915 309.047 128.872C309.122 128.819 309.207 128.781 309.303 128.76C309.399 128.728 309.495 128.707 309.591 128.696C309.687 128.685 309.762 128.68 309.815 128.68C309.943 128.68 310.039 128.739 310.103 128.856C310.178 128.973 310.231 129.117 310.263 129.288C310.306 129.448 310.343 129.597 310.375 129.736C310.652 129.352 310.946 129.059 311.255 128.856C311.575 128.643 311.9 128.536 312.231 128.536C312.54 128.536 312.77 128.589 312.919 128.696C313.079 128.792 313.159 128.947 313.159 129.16C313.159 129.256 313.143 129.373 313.111 129.512C313.09 129.651 313.052 129.773 312.999 129.88C312.956 129.976 312.903 130.024 312.839 130.024C312.732 130.024 312.626 129.997 312.519 129.944C312.423 129.88 312.236 129.848 311.959 129.848C311.682 129.848 311.431 129.928 311.207 130.088C310.983 130.248 310.807 130.413 310.679 130.584C310.551 130.744 310.487 130.824 310.487 130.824V136.68C310.487 136.915 310.274 137.032 309.847 137.032H309.783ZM315.659 137.032C315.232 137.032 315.019 136.915 315.019 136.68V128.952C315.019 128.717 315.232 128.6 315.659 128.6H315.723C316.149 128.6 316.363 128.717 316.363 128.952V136.68C316.363 136.915 316.149 137.032 315.723 137.032H315.659ZM315.691 127.48C315.435 127.48 315.253 127.448 315.147 127.384C315.04 127.32 314.987 127.235 314.987 127.128V126.168C314.987 126.061 315.04 125.976 315.147 125.912C315.253 125.848 315.435 125.816 315.691 125.816C315.947 125.816 316.128 125.848 316.235 125.912C316.341 125.965 316.395 126.051 316.395 126.168V127.128C316.395 127.235 316.341 127.32 316.235 127.384C316.128 127.448 315.947 127.48 315.691 127.48ZM321.173 137.096C320.97 137.096 320.752 137.064 320.517 137C320.282 136.947 320.058 136.845 319.845 136.696C319.632 136.536 319.456 136.312 319.317 136.024C319.178 135.725 319.109 135.347 319.109 134.888V125.32C319.109 125.085 319.322 124.968 319.749 124.968H319.813C320.24 124.968 320.453 125.085 320.453 125.32V134.76C320.453 135.24 320.538 135.56 320.709 135.72C320.88 135.869 321.082 135.944 321.317 135.944C321.552 135.944 321.706 135.933 321.781 135.912C321.856 135.88 321.93 135.864 322.005 135.864C322.08 135.864 322.138 135.917 322.181 136.024C322.234 136.131 322.272 136.248 322.293 136.376C322.325 136.493 322.341 136.573 322.341 136.616C322.341 136.755 322.272 136.861 322.133 136.936C322.005 137 321.85 137.043 321.669 137.064C321.488 137.085 321.322 137.096 321.173 137.096ZM325.923 137.096C325.72 137.096 325.502 137.064 325.267 137C325.032 136.947 324.808 136.845 324.595 136.696C324.382 136.536 324.206 136.312 324.067 136.024C323.928 135.725 323.859 135.347 323.859 134.888V125.32C323.859 125.085 324.072 124.968 324.499 124.968H324.563C324.99 124.968 325.203 125.085 325.203 125.32V134.76C325.203 135.24 325.288 135.56 325.459 135.72C325.63 135.869 325.832 135.944 326.067 135.944C326.302 135.944 326.456 135.933 326.531 135.912C326.606 135.88 326.68 135.864 326.755 135.864C326.83 135.864 326.888 135.917 326.931 136.024C326.984 136.131 327.022 136.248 327.043 136.376C327.075 136.493 327.091 136.573 327.091 136.616C327.091 136.755 327.022 136.861 326.883 136.936C326.755 137 326.6 137.043 326.419 137.064C326.238 137.085 326.072 137.096 325.923 137.096ZM331.358 137.096C330.152 137.096 329.23 136.733 328.59 136.008C327.96 135.283 327.646 134.232 327.646 132.856C327.646 131.469 327.966 130.403 328.606 129.656C329.246 128.909 330.163 128.536 331.358 128.536C332.531 128.536 333.427 128.909 334.046 129.656C334.675 130.392 334.99 131.459 334.99 132.856C334.99 134.243 334.68 135.299 334.062 136.024C333.454 136.739 332.552 137.096 331.358 137.096ZM331.31 135.944C332.099 135.944 332.675 135.693 333.038 135.192C333.411 134.68 333.598 133.891 333.598 132.824C333.598 131.757 333.411 130.968 333.038 130.456C332.675 129.944 332.099 129.688 331.31 129.688C330.531 129.688 329.96 129.944 329.598 130.456C329.235 130.957 329.054 131.747 329.054 132.824C329.054 133.891 329.235 134.68 329.598 135.192C329.96 135.693 330.531 135.944 331.31 135.944Z" fill="black"/>
<path d="M405.704 137.128C404.339 137.128 403.325 136.776 402.664 136.072C402.003 135.368 401.672 134.301 401.672 132.872C401.672 132.157 401.752 131.528 401.912 130.984C402.072 130.44 402.317 129.987 402.648 129.624C402.989 129.251 403.416 128.973 403.928 128.792C404.451 128.6 405.069 128.504 405.784 128.504C406.168 128.504 406.563 128.547 406.968 128.632C407.384 128.707 407.731 128.829 408.008 129C408.296 129.16 408.44 129.363 408.44 129.608C408.44 129.704 408.387 129.853 408.28 130.056C408.184 130.248 408.067 130.429 407.928 130.6C407.8 130.76 407.688 130.84 407.592 130.84C407.56 130.84 407.517 130.829 407.464 130.808C407.421 130.787 407.368 130.76 407.304 130.728C407.165 130.653 406.984 130.579 406.76 130.504C406.536 130.419 406.253 130.376 405.912 130.376C405.272 130.376 404.808 130.579 404.52 130.984C404.243 131.379 404.104 131.987 404.104 132.808C404.104 133.629 404.237 134.243 404.504 134.648C404.771 135.053 405.208 135.256 405.816 135.256C406.189 135.256 406.504 135.213 406.76 135.128C407.016 135.032 407.224 134.952 407.384 134.888C407.448 134.867 407.501 134.845 407.544 134.824C407.597 134.803 407.64 134.792 407.672 134.792C407.789 134.792 407.912 134.872 408.04 135.032C408.168 135.192 408.275 135.368 408.36 135.56C408.456 135.752 408.504 135.901 408.504 136.008C408.504 136.232 408.387 136.419 408.152 136.568C407.917 136.707 407.635 136.819 407.304 136.904C406.973 136.989 406.653 137.048 406.344 137.08C406.045 137.112 405.832 137.128 405.704 137.128ZM413.326 137.128C412.056 137.128 411.091 136.755 410.43 136.008C409.768 135.261 409.438 134.195 409.438 132.808C409.438 131.411 409.768 130.344 410.43 129.608C411.091 128.872 412.056 128.504 413.326 128.504C414.595 128.504 415.555 128.872 416.206 129.608C416.867 130.344 417.198 131.411 417.198 132.808C417.198 134.195 416.867 135.261 416.206 136.008C415.555 136.755 414.595 137.128 413.326 137.128ZM413.326 135.256C413.838 135.256 414.211 135.048 414.446 134.632C414.68 134.216 414.798 133.608 414.798 132.808C414.798 132.008 414.68 131.405 414.446 131C414.211 130.584 413.838 130.376 413.326 130.376C412.814 130.376 412.435 130.584 412.19 131C411.955 131.405 411.838 132.008 411.838 132.808C411.838 133.608 411.955 134.216 412.19 134.632C412.435 135.048 412.814 135.256 413.326 135.256ZM421.219 137.128C420.846 137.128 420.51 137.08 420.211 136.984C419.923 136.877 419.678 136.717 419.475 136.504C419.283 136.291 419.134 136.024 419.027 135.704C418.931 135.373 418.883 134.984 418.883 134.536V125.448C418.883 125.107 419.203 124.936 419.843 124.936H420.291C420.931 124.936 421.251 125.107 421.251 125.448V134.568C421.251 134.803 421.294 134.979 421.379 135.096C421.475 135.203 421.624 135.256 421.827 135.256C421.902 135.256 421.982 135.245 422.067 135.224C422.152 135.203 422.216 135.192 422.259 135.192C422.366 135.192 422.456 135.283 422.531 135.464C422.606 135.635 422.659 135.816 422.691 136.008C422.734 136.189 422.755 136.301 422.755 136.344C422.755 136.589 422.659 136.771 422.467 136.888C422.286 136.995 422.072 137.059 421.827 137.08C421.592 137.112 421.39 137.128 421.219 137.128ZM426.654 137.128C425.384 137.128 424.419 136.755 423.758 136.008C423.096 135.261 422.766 134.195 422.766 132.808C422.766 131.411 423.096 130.344 423.758 129.608C424.419 128.872 425.384 128.504 426.654 128.504C427.923 128.504 428.883 128.872 429.534 129.608C430.195 130.344 430.526 131.411 430.526 132.808C430.526 134.195 430.195 135.261 429.534 136.008C428.883 136.755 427.923 137.128 426.654 137.128ZM426.654 135.256C427.166 135.256 427.539 135.048 427.774 134.632C428.008 134.216 428.126 133.608 428.126 132.808C428.126 132.008 428.008 131.405 427.774 131C427.539 130.584 427.166 130.376 426.654 130.376C426.142 130.376 425.763 130.584 425.518 131C425.283 131.405 425.166 132.008 425.166 132.808C425.166 133.608 425.283 134.216 425.518 134.632C425.763 135.048 426.142 135.256 426.654 135.256ZM433.155 137.032C432.515 137.032 432.195 136.861 432.195 136.52V131.448C432.195 130.915 432.179 130.504 432.147 130.216C432.115 129.928 432.083 129.715 432.051 129.576C432.019 129.427 432.003 129.299 432.003 129.192C432.003 129.096 432.072 129.016 432.211 128.952C432.36 128.888 432.536 128.835 432.739 128.792C432.952 128.749 433.155 128.723 433.347 128.712C433.55 128.691 433.699 128.68 433.795 128.68C433.966 128.68 434.088 128.739 434.163 128.856C434.248 128.973 434.307 129.112 434.339 129.272C434.371 129.432 434.403 129.581 434.435 129.72C434.606 129.411 434.824 129.133 435.091 128.888C435.358 128.632 435.72 128.504 436.179 128.504C436.574 128.504 436.824 128.584 436.931 128.744C437.038 128.904 437.091 129.112 437.091 129.368C437.091 129.464 437.07 129.624 437.027 129.848C436.995 130.061 436.942 130.259 436.867 130.44C436.792 130.621 436.702 130.712 436.595 130.712C436.488 130.712 436.376 130.691 436.259 130.648C436.142 130.605 436.003 130.584 435.843 130.584C435.63 130.584 435.438 130.632 435.267 130.728C435.096 130.813 434.952 130.92 434.835 131.048C434.718 131.165 434.627 131.277 434.563 131.384V136.52C434.563 136.861 434.243 137.032 433.603 137.032H433.155ZM442.026 132.712C441.813 132.712 441.706 132.552 441.706 132.232V132.024C441.706 131.704 441.813 131.544 442.026 131.544H448.746C448.96 131.544 449.066 131.704 449.066 132.024V132.232C449.066 132.552 448.96 132.712 448.746 132.712H442.026ZM442.026 135.336C441.813 135.336 441.706 135.176 441.706 134.856V134.648C441.706 134.328 441.813 134.168 442.026 134.168H448.746C448.96 134.168 449.066 134.328 449.066 134.648V134.856C449.066 135.176 448.96 135.336 448.746 135.336H442.026ZM455.783 137.032C455.356 137.032 455.143 136.915 455.143 136.68V131.064C455.143 130.627 455.127 130.264 455.095 129.976C455.063 129.688 455.031 129.469 454.999 129.32C454.967 129.16 454.951 129.069 454.951 129.048C454.951 128.973 454.983 128.915 455.047 128.872C455.122 128.819 455.207 128.781 455.303 128.76C455.399 128.728 455.495 128.707 455.591 128.696C455.687 128.685 455.762 128.68 455.815 128.68C455.943 128.68 456.039 128.739 456.103 128.856C456.178 128.973 456.231 129.117 456.263 129.288C456.306 129.448 456.343 129.597 456.375 129.736C456.652 129.352 456.946 129.059 457.255 128.856C457.575 128.643 457.9 128.536 458.231 128.536C458.54 128.536 458.77 128.589 458.919 128.696C459.079 128.792 459.159 128.947 459.159 129.16C459.159 129.256 459.143 129.373 459.111 129.512C459.09 129.651 459.052 129.773 458.999 129.88C458.956 129.976 458.903 130.024 458.839 130.024C458.732 130.024 458.626 129.997 458.519 129.944C458.423 129.88 458.236 129.848 457.959 129.848C457.682 129.848 457.431 129.928 457.207 130.088C456.983 130.248 456.807 130.413 456.679 130.584C456.551 130.744 456.487 130.824 456.487 130.824V136.68C456.487 136.915 456.274 137.032 455.847 137.032H455.783ZM463.842 137.096C462.637 137.096 461.714 136.733 461.074 136.008C460.445 135.283 460.13 134.232 460.13 132.856C460.13 131.469 460.45 130.403 461.09 129.656C461.73 128.909 462.647 128.536 463.842 128.536C465.015 128.536 465.911 128.909 466.53 129.656C467.159 130.392 467.474 131.459 467.474 132.856C467.474 134.243 467.165 135.299 466.546 136.024C465.938 136.739 465.037 137.096 463.842 137.096ZM463.794 135.944C464.583 135.944 465.159 135.693 465.522 135.192C465.895 134.68 466.082 133.891 466.082 132.824C466.082 131.757 465.895 130.968 465.522 130.456C465.159 129.944 464.583 129.688 463.794 129.688C463.015 129.688 462.445 129.944 462.082 130.456C461.719 130.957 461.538 131.747 461.538 132.824C461.538 133.891 461.719 134.68 462.082 135.192C462.445 135.693 463.015 135.944 463.794 135.944ZM469.255 140.392C469.117 140.392 468.951 140.381 468.759 140.36C468.578 140.339 468.423 140.291 468.295 140.216C468.157 140.152 468.087 140.051 468.087 139.912C468.087 139.869 468.103 139.784 468.135 139.656C468.157 139.539 468.194 139.427 468.247 139.32C468.29 139.213 468.349 139.16 468.423 139.16C468.498 139.16 468.573 139.171 468.647 139.192C468.722 139.224 468.877 139.24 469.111 139.24C469.346 139.24 469.549 139.16 469.719 139C469.89 138.851 469.975 138.536 469.975 138.056V128.952C469.975 128.717 470.189 128.6 470.615 128.6H470.679C471.106 128.6 471.319 128.717 471.319 128.952V138.184C471.319 138.643 471.25 139.016 471.111 139.304C470.973 139.603 470.797 139.827 470.583 139.976C470.37 140.136 470.146 140.243 469.911 140.296C469.677 140.36 469.458 140.392 469.255 140.392ZM470.647 127.48C470.391 127.48 470.21 127.448 470.103 127.384C469.997 127.32 469.943 127.235 469.943 127.128V126.168C469.943 126.061 469.997 125.976 470.103 125.912C470.21 125.848 470.391 125.816 470.647 125.816C470.903 125.816 471.085 125.848 471.191 125.912C471.298 125.965 471.351 126.051 471.351 126.168V127.128C471.351 127.235 471.298 127.32 471.191 127.384C471.085 127.448 470.903 127.48 470.647 127.48ZM477.373 137.096C476.168 137.096 475.245 136.733 474.605 136.008C473.976 135.283 473.661 134.232 473.661 132.856C473.661 131.469 473.981 130.403 474.621 129.656C475.261 128.909 476.179 128.536 477.373 128.536C478.547 128.536 479.443 128.909 480.061 129.656C480.691 130.392 481.005 131.459 481.005 132.856C481.005 134.243 480.696 135.299 480.077 136.024C479.469 136.739 478.568 137.096 477.373 137.096ZM477.325 135.944C478.115 135.944 478.691 135.693 479.053 135.192C479.427 134.68 479.613 133.891 479.613 132.824C479.613 131.757 479.427 130.968 479.053 130.456C478.691 129.944 478.115 129.688 477.325 129.688C476.547 129.688 475.976 129.944 475.613 130.456C475.251 130.957 475.069 131.747 475.069 132.824C475.069 133.891 475.251 134.68 475.613 135.192C475.976 135.693 476.547 135.944 477.325 135.944Z" fill="black"/>
<line x1="56.5" y1="118" x2="56.5" y2="150" stroke="black"/>
<line x1="56" y1="118.5" x2="61" y2="118.5" stroke="black"/>
<line x1="56" y1="149.5" x2="61" y2="149.5" stroke="black"/>
<line x1="535.5" y1="118" x2="535.5" y2="150" stroke="black"/>
<line x1="535" y1="118.5" x2="540" y2="118.5" stroke="black"/>
<line x1="535" y1="149.5" x2="540" y2="149.5" stroke="black"/>
<line x1="212.5" y1="118" x2="212.5" y2="150" stroke="black"/>
<line x1="212" y1="118.5" x2="217" y2="118.5" stroke="black"/>
<line x1="212" y1="149.5" x2="217" y2="149.5" stroke="black"/>
<line x1="389.5" y1="118" x2="389.5" y2="150" stroke="black"/>
<line x1="389" y1="118.5" x2="394" y2="118.5" stroke="black"/>
<line x1="389" y1="149.5" x2="394" y2="149.5" stroke="black"/>
<line y1="-0.5" x2="32" y2="-0.5" transform="matrix(4.37114e-08 1 1 -4.37114e-08 167 118)" stroke="black"/>
<line y1="-0.5" x2="5" y2="-0.5" transform="matrix(-1 0 0 1 167 119)" stroke="black"/>
<line y1="-0.5" x2="5" y2="-0.5" transform="matrix(-1 0 0 1 167 150)" stroke="black"/>
<line y1="-0.5" x2="32" y2="-0.5" transform="matrix(4.37114e-08 1 1 -4.37114e-08 646 118)" stroke="black"/>
<line y1="-0.5" x2="5" y2="-0.5" transform="matrix(-1 0 0 1 646 119)" stroke="black"/>
<line y1="-0.5" x2="5" y2="-0.5" transform="matrix(-1 0 0 1 646 150)" stroke="black"/>
<line y1="-0.5" x2="32" y2="-0.5" transform="matrix(4.37114e-08 1 1 -4.37114e-08 344 118)" stroke="black"/>
<line y1="-0.5" x2="5" y2="-0.5" transform="matrix(-1 0 0 1 344 119)" stroke="black"/>
<line y1="-0.5" x2="5" y2="-0.5" transform="matrix(-1 0 0 1 344 150)" stroke="black"/>
<line y1="-0.5" x2="32" y2="-0.5" transform="matrix(4.37114e-08 1 1 -4.37114e-08 490 118)" stroke="black"/>
<line y1="-0.5" x2="5" y2="-0.5" transform="matrix(-1 0 0 1 490 119)" stroke="black"/>
<line y1="-0.5" x2="5" y2="-0.5" transform="matrix(-1 0 0 1 490 150)" stroke="black"/>
<path d="M205 134L200 131.113V136.887L205 134ZM175 134.5H200.5V133.5H175V134.5Z" fill="black"/>
<path d="M382 134L377 131.113V136.887L382 134ZM352 134.5H377.5V133.5H352V134.5Z" fill="black"/>
<path d="M528 134L523 131.113V136.887L528 134ZM498 134.5H523.5V133.5H498V134.5Z" fill="black"/>
<path d="M683 134L678 131.113V136.887L683 134ZM653 134.5H678.5V133.5H653V134.5Z" fill="black"/>
<path d="M80.6464 119.354C80.8417 119.549 81.1583 119.549 81.3535 119.354L84.5355 116.172C84.7308 115.976 84.7308 115.66 84.5355 115.464C84.3403 115.269 84.0237 115.269 83.8284 115.464L81 118.293L78.1716 115.464C77.9763 115.269 77.6597 115.269 77.4645 115.464C77.2692 115.66 77.2692 115.976 77.4645 116.172L80.6464 119.354ZM80.5 71L80.5 119L81.5 119L81.5 71L80.5 71Z" fill="#C60C0C"/>
<path d="M167 159H56" stroke="#C60C0C"/>
<path d="M712 243L56 243" stroke="#C60C0C"/>
<path d="M115 159L115 192" stroke="#C60C0C"/>
<path d="M389 243L389 276" stroke="#C60C0C"/>
<path d="M56.1094 65.4297L59.1719 58.5469H61.1406L56.9609 67H55.7344L56.1094 65.4297ZM55.6328 58.5469L56.6016 65.625L56.4766 67H55.3281L53.7812 58.5469H55.6328ZM65.6406 65.3047L66.2812 61.25C66.3125 60.9792 66.2943 60.7344 66.2266 60.5156C66.1589 60.2969 66.0339 60.125 65.8516 60C65.6745 59.8698 65.4401 59.8021 65.1484 59.7969C64.888 59.7917 64.6432 59.8359 64.4141 59.9297C64.1849 60.0182 63.9896 60.151 63.8281 60.3281C63.6719 60.5052 63.5677 60.7214 63.5156 60.9766L61.6797 60.9844C61.7109 60.5417 61.8411 60.1562 62.0703 59.8281C62.3047 59.4948 62.599 59.2214 62.9531 59.0078C63.3125 58.7891 63.6979 58.6302 64.1094 58.5312C64.526 58.4271 64.9323 58.3776 65.3281 58.3828C65.901 58.3932 66.4089 58.5156 66.8516 58.75C67.2943 58.9844 67.6302 59.3151 67.8594 59.7422C68.0938 60.1693 68.1823 60.6849 68.125 61.2891L67.5078 65.0547C67.4609 65.3516 67.4271 65.6562 67.4062 65.9688C67.3906 66.276 67.4323 66.5729 67.5312 66.8594L67.5156 67L65.6953 67.0078C65.6172 66.7318 65.5781 66.4505 65.5781 66.1641C65.5781 65.8724 65.599 65.5859 65.6406 65.3047ZM66.4922 61.8594L66.3047 63.0234L65.0859 63.0156C64.8359 63.0156 64.5781 63.0391 64.3125 63.0859C64.0521 63.1328 63.8073 63.2135 63.5781 63.3281C63.349 63.4427 63.1562 63.599 63 63.7969C62.8438 63.9896 62.7474 64.2318 62.7109 64.5234C62.6849 64.7578 62.7109 64.9609 62.7891 65.1328C62.8724 65.2995 62.9974 65.4323 63.1641 65.5312C63.3307 65.6302 63.5286 65.6823 63.7578 65.6875C64.0651 65.6927 64.3672 65.6328 64.6641 65.5078C64.9661 65.3828 65.2266 65.2057 65.4453 64.9766C65.6693 64.7422 65.8229 64.474 65.9062 64.1719L66.3984 65.0156C66.2839 65.3333 66.1224 65.625 65.9141 65.8906C65.7109 66.1562 65.474 66.3854 65.2031 66.5781C64.9323 66.7708 64.6354 66.9193 64.3125 67.0234C63.9948 67.1276 63.6667 67.1771 63.3281 67.1719C62.8594 67.1615 62.4323 67.0547 62.0469 66.8516C61.6615 66.6432 61.3568 66.3542 61.1328 65.9844C60.9089 65.6146 60.8099 65.1875 60.8359 64.7031C60.862 64.1562 61 63.7005 61.25 63.3359C61.5052 62.9661 61.8307 62.6745 62.2266 62.4609C62.6276 62.2422 63.0651 62.0859 63.5391 61.9922C64.013 61.8984 64.4818 61.8516 64.9453 61.8516L66.4922 61.8594ZM72.0938 60.25L70.9219 67H69.0859L70.5547 58.5469H72.2969L72.0938 60.25ZM74.8438 58.4766L74.6406 60.2344C74.5208 60.2135 74.3984 60.1953 74.2734 60.1797C74.1536 60.1641 74.0339 60.1562 73.9141 60.1562C73.5964 60.151 73.3099 60.1953 73.0547 60.2891C72.7995 60.3828 72.5755 60.5182 72.3828 60.6953C72.1901 60.8672 72.0286 61.0755 71.8984 61.3203C71.7682 61.5599 71.6667 61.8281 71.5938 62.125L71.1562 62.1562C71.2083 61.7448 71.2969 61.3177 71.4219 60.875C71.5521 60.4323 71.7318 60.0208 71.9609 59.6406C72.1901 59.2552 72.4818 58.9453 72.8359 58.7109C73.1901 58.4714 73.6198 58.3568 74.125 58.3672C74.2448 58.3672 74.3646 58.3776 74.4844 58.3984C74.6042 58.4193 74.724 58.4453 74.8438 58.4766ZM77.9922 58.5469L76.5234 67H74.6875L76.1562 58.5469H77.9922ZM76.4141 56.3594C76.4089 56.0573 76.5078 55.8099 76.7109 55.6172C76.9141 55.4245 77.1641 55.3255 77.4609 55.3203C77.7474 55.3151 77.9922 55.4036 78.1953 55.5859C78.4036 55.763 78.5078 56 78.5078 56.2969C78.513 56.599 78.4115 56.8438 78.2031 57.0312C78 57.2188 77.7526 57.3151 77.4609 57.3203C77.1745 57.3255 76.9297 57.2422 76.7266 57.0703C76.5234 56.8932 76.4193 56.6562 76.4141 56.3594ZM83.4531 65.3047L84.0938 61.25C84.125 60.9792 84.1068 60.7344 84.0391 60.5156C83.9714 60.2969 83.8464 60.125 83.6641 60C83.487 59.8698 83.2526 59.8021 82.9609 59.7969C82.7005 59.7917 82.4557 59.8359 82.2266 59.9297C81.9974 60.0182 81.8021 60.151 81.6406 60.3281C81.4844 60.5052 81.3802 60.7214 81.3281 60.9766L79.4922 60.9844C79.5234 60.5417 79.6536 60.1562 79.8828 59.8281C80.1172 59.4948 80.4115 59.2214 80.7656 59.0078C81.125 58.7891 81.5104 58.6302 81.9219 58.5312C82.3385 58.4271 82.7448 58.3776 83.1406 58.3828C83.7135 58.3932 84.2214 58.5156 84.6641 58.75C85.1068 58.9844 85.4427 59.3151 85.6719 59.7422C85.9062 60.1693 85.9948 60.6849 85.9375 61.2891L85.3203 65.0547C85.2734 65.3516 85.2396 65.6562 85.2188 65.9688C85.2031 66.276 85.2448 66.5729 85.3438 66.8594L85.3281 67L83.5078 67.0078C83.4297 66.7318 83.3906 66.4505 83.3906 66.1641C83.3906 65.8724 83.4115 65.5859 83.4531 65.3047ZM84.3047 61.8594L84.1172 63.0234L82.8984 63.0156C82.6484 63.0156 82.3906 63.0391 82.125 63.0859C81.8646 63.1328 81.6198 63.2135 81.3906 63.3281C81.1615 63.4427 80.9688 63.599 80.8125 63.7969C80.6562 63.9896 80.5599 64.2318 80.5234 64.5234C80.4974 64.7578 80.5234 64.9609 80.6016 65.1328C80.6849 65.2995 80.8099 65.4323 80.9766 65.5312C81.1432 65.6302 81.3411 65.6823 81.5703 65.6875C81.8776 65.6927 82.1797 65.6328 82.4766 65.5078C82.7786 65.3828 83.0391 65.2057 83.2578 64.9766C83.4818 64.7422 83.6354 64.474 83.7188 64.1719L84.2109 65.0156C84.0964 65.3333 83.9349 65.625 83.7266 65.8906C83.5234 66.1562 83.2865 66.3854 83.0156 66.5781C82.7448 66.7708 82.4479 66.9193 82.125 67.0234C81.8073 67.1276 81.4792 67.1771 81.1406 67.1719C80.6719 67.1615 80.2448 67.0547 79.8594 66.8516C79.474 66.6432 79.1693 66.3542 78.9453 65.9844C78.7214 65.6146 78.6224 65.1875 78.6484 64.7031C78.6745 64.1562 78.8125 63.7005 79.0625 63.3359C79.3177 62.9661 79.6432 62.6745 80.0391 62.4609C80.4401 62.2422 80.8776 62.0859 81.3516 61.9922C81.8255 61.8984 82.2943 61.8516 82.7578 61.8516L84.3047 61.8594ZM88.9766 55H90.8203L89.0312 65.3047L88.5703 67H86.8906L88.9766 55ZM94.8203 62.6484L94.8047 62.8125C94.737 63.3333 94.6146 63.8542 94.4375 64.375C94.2656 64.8906 94.026 65.362 93.7188 65.7891C93.4167 66.2161 93.0417 66.5573 92.5938 66.8125C92.151 67.0625 91.6276 67.1797 91.0234 67.1641C90.487 67.1536 90.0391 67.0208 89.6797 66.7656C89.3255 66.5104 89.0469 66.1797 88.8438 65.7734C88.6406 65.3672 88.5026 64.9271 88.4297 64.4531C88.3568 63.974 88.3307 63.5052 88.3516 63.0469L88.4141 62.5156C88.5026 62.0312 88.6432 61.5443 88.8359 61.0547C89.0339 60.5599 89.2891 60.1094 89.6016 59.7031C89.9141 59.2917 90.2865 58.9661 90.7188 58.7266C91.1562 58.4818 91.6536 58.3672 92.2109 58.3828C92.7943 58.3984 93.2682 58.5391 93.6328 58.8047C93.9974 59.0651 94.2734 59.4036 94.4609 59.8203C94.6536 60.237 94.7734 60.6927 94.8203 61.1875C94.8724 61.6823 94.8724 62.1693 94.8203 62.6484ZM92.9609 62.8047L92.9844 62.6328C93.0156 62.3672 93.0286 62.0781 93.0234 61.7656C93.0234 61.4531 92.9844 61.1562 92.9062 60.875C92.8281 60.5938 92.6901 60.3646 92.4922 60.1875C92.2995 60.0052 92.0208 59.9089 91.6562 59.8984C91.3333 59.8828 91.0417 59.9349 90.7812 60.0547C90.5208 60.1693 90.2917 60.3307 90.0938 60.5391C89.8958 60.7422 89.7318 60.9766 89.6016 61.2422C89.4714 61.5078 89.3724 61.7839 89.3047 62.0703L89.0859 63.5C89.0703 63.849 89.1146 64.1849 89.2188 64.5078C89.3229 64.8307 89.4948 65.099 89.7344 65.3125C89.974 65.5208 90.2891 65.6302 90.6797 65.6406C91.0703 65.6562 91.401 65.5781 91.6719 65.4062C91.9479 65.2344 92.1719 65.0078 92.3438 64.7266C92.5208 64.4453 92.6589 64.1354 92.7578 63.7969C92.8568 63.4583 92.9245 63.1276 92.9609 62.8047ZM99.6719 55L97.5859 67H95.75L97.8281 55H99.6719ZM103.375 67.1562C102.797 67.1458 102.284 67.0339 101.836 66.8203C101.393 66.6016 101.026 66.3073 100.734 65.9375C100.443 65.5625 100.232 65.1328 100.102 64.6484C99.9714 64.1589 99.9271 63.638 99.9688 63.0859L100 62.7656C100.057 62.1979 100.195 61.651 100.414 61.125C100.633 60.5938 100.924 60.1224 101.289 59.7109C101.659 59.2943 102.094 58.9661 102.594 58.7266C103.094 58.487 103.651 58.375 104.266 58.3906C104.854 58.401 105.352 58.5234 105.758 58.7578C106.164 58.9922 106.487 59.3047 106.727 59.6953C106.966 60.0807 107.125 60.5182 107.203 61.0078C107.286 61.4974 107.299 62.0052 107.242 62.5312L107.133 63.3359H100.789L101.008 61.9844L105.484 61.9922L105.516 61.8281C105.562 61.5 105.544 61.1901 105.461 60.8984C105.383 60.6068 105.237 60.3672 105.023 60.1797C104.81 59.9922 104.523 59.8932 104.164 59.8828C103.773 59.8724 103.438 59.9531 103.156 60.125C102.88 60.2969 102.651 60.5286 102.469 60.8203C102.286 61.112 102.143 61.4297 102.039 61.7734C101.94 62.112 101.87 62.4427 101.828 62.7656L101.797 63.0781C101.766 63.3854 101.773 63.6901 101.82 63.9922C101.867 64.2943 101.958 64.5703 102.094 64.8203C102.229 65.0651 102.417 65.2656 102.656 65.4219C102.896 65.5729 103.193 65.6536 103.547 65.6641C103.99 65.6745 104.391 65.5833 104.75 65.3906C105.115 65.1927 105.445 64.9375 105.742 64.625L106.648 65.5859C106.409 65.9453 106.112 66.2422 105.758 66.4766C105.409 66.7109 105.029 66.8854 104.617 67C104.211 67.1094 103.797 67.1615 103.375 67.1562Z" fill="black" fill-opacity="0.8"/>
<path d="M102.922 210.156C102.344 210.146 101.831 210.034 101.383 209.82C100.94 209.602 100.573 209.307 100.281 208.938C99.9896 208.562 99.7786 208.133 99.6484 207.648C99.5182 207.159 99.474 206.638 99.5156 206.086L99.5469 205.766C99.6042 205.198 99.7422 204.651 99.9609 204.125C100.18 203.594 100.471 203.122 100.836 202.711C101.206 202.294 101.641 201.966 102.141 201.727C102.641 201.487 103.198 201.375 103.812 201.391C104.401 201.401 104.898 201.523 105.305 201.758C105.711 201.992 106.034 202.305 106.273 202.695C106.513 203.081 106.672 203.518 106.75 204.008C106.833 204.497 106.846 205.005 106.789 205.531L106.68 206.336H100.336L100.555 204.984L105.031 204.992L105.062 204.828C105.109 204.5 105.091 204.19 105.008 203.898C104.93 203.607 104.784 203.367 104.57 203.18C104.357 202.992 104.07 202.893 103.711 202.883C103.32 202.872 102.984 202.953 102.703 203.125C102.427 203.297 102.198 203.529 102.016 203.82C101.833 204.112 101.69 204.43 101.586 204.773C101.487 205.112 101.417 205.443 101.375 205.766L101.344 206.078C101.312 206.385 101.32 206.69 101.367 206.992C101.414 207.294 101.505 207.57 101.641 207.82C101.776 208.065 101.964 208.266 102.203 208.422C102.443 208.573 102.74 208.654 103.094 208.664C103.536 208.674 103.938 208.583 104.297 208.391C104.661 208.193 104.992 207.938 105.289 207.625L106.195 208.586C105.956 208.945 105.659 209.242 105.305 209.477C104.956 209.711 104.576 209.885 104.164 210C103.758 210.109 103.344 210.161 102.922 210.156ZM112.492 207.664C112.534 207.378 112.471 207.156 112.305 207C112.138 206.839 111.93 206.716 111.68 206.633C111.43 206.549 111.201 206.482 110.992 206.43C110.674 206.352 110.357 206.253 110.039 206.133C109.727 206.008 109.44 205.852 109.18 205.664C108.919 205.477 108.714 205.247 108.562 204.977C108.411 204.701 108.344 204.372 108.359 203.992C108.38 203.555 108.495 203.172 108.703 202.844C108.911 202.516 109.18 202.242 109.508 202.023C109.841 201.805 110.206 201.643 110.602 201.539C110.997 201.435 111.391 201.385 111.781 201.391C112.328 201.401 112.831 201.508 113.289 201.711C113.753 201.914 114.122 202.214 114.398 202.609C114.68 203.005 114.818 203.495 114.812 204.078L112.984 204.07C112.995 203.81 112.948 203.586 112.844 203.398C112.745 203.206 112.599 203.057 112.406 202.953C112.214 202.849 111.982 202.794 111.711 202.789C111.477 202.784 111.245 202.823 111.016 202.906C110.792 202.99 110.599 203.115 110.438 203.281C110.276 203.448 110.177 203.659 110.141 203.914C110.109 204.112 110.138 204.276 110.227 204.406C110.315 204.531 110.438 204.633 110.594 204.711C110.75 204.789 110.914 204.854 111.086 204.906C111.263 204.953 111.422 204.992 111.562 205.023C112.005 205.143 112.44 205.297 112.867 205.484C113.294 205.667 113.643 205.924 113.914 206.258C114.185 206.586 114.307 207.018 114.281 207.555C114.266 208.013 114.146 208.409 113.922 208.742C113.698 209.07 113.411 209.341 113.062 209.555C112.714 209.763 112.331 209.917 111.914 210.016C111.503 210.115 111.096 210.161 110.695 210.156C110.143 210.146 109.622 210.031 109.133 209.812C108.648 209.594 108.258 209.279 107.961 208.867C107.669 208.451 107.523 207.943 107.523 207.344L109.297 207.352C109.297 207.654 109.357 207.909 109.477 208.117C109.602 208.326 109.773 208.484 109.992 208.594C110.216 208.698 110.477 208.753 110.773 208.758C111.018 208.758 111.263 208.724 111.508 208.656C111.758 208.583 111.971 208.466 112.148 208.305C112.331 208.143 112.445 207.93 112.492 207.664ZM120.672 201.547L120.43 202.922H115.805L116.039 201.547H120.672ZM117.734 199.477H119.57L118.172 207.68C118.151 207.862 118.151 208.021 118.172 208.156C118.198 208.292 118.258 208.398 118.352 208.477C118.451 208.549 118.602 208.589 118.805 208.594C118.914 208.599 119.023 208.594 119.133 208.578C119.247 208.562 119.362 208.547 119.477 208.531L119.344 209.984C119.156 210.042 118.964 210.083 118.766 210.109C118.573 210.135 118.378 210.146 118.18 210.141C117.711 210.135 117.333 210.029 117.047 209.82C116.76 209.607 116.56 209.323 116.445 208.969C116.331 208.615 116.294 208.219 116.336 207.781L117.734 199.477ZM125.547 208.305L126.188 204.25C126.219 203.979 126.201 203.734 126.133 203.516C126.065 203.297 125.94 203.125 125.758 203C125.581 202.87 125.346 202.802 125.055 202.797C124.794 202.792 124.549 202.836 124.32 202.93C124.091 203.018 123.896 203.151 123.734 203.328C123.578 203.505 123.474 203.721 123.422 203.977L121.586 203.984C121.617 203.542 121.747 203.156 121.977 202.828C122.211 202.495 122.505 202.221 122.859 202.008C123.219 201.789 123.604 201.63 124.016 201.531C124.432 201.427 124.839 201.378 125.234 201.383C125.807 201.393 126.315 201.516 126.758 201.75C127.201 201.984 127.536 202.315 127.766 202.742C128 203.169 128.089 203.685 128.031 204.289L127.414 208.055C127.367 208.352 127.333 208.656 127.312 208.969C127.297 209.276 127.339 209.573 127.438 209.859L127.422 210L125.602 210.008C125.523 209.732 125.484 209.451 125.484 209.164C125.484 208.872 125.505 208.586 125.547 208.305ZM126.398 204.859L126.211 206.023L124.992 206.016C124.742 206.016 124.484 206.039 124.219 206.086C123.958 206.133 123.714 206.214 123.484 206.328C123.255 206.443 123.062 206.599 122.906 206.797C122.75 206.99 122.654 207.232 122.617 207.523C122.591 207.758 122.617 207.961 122.695 208.133C122.779 208.299 122.904 208.432 123.07 208.531C123.237 208.63 123.435 208.682 123.664 208.688C123.971 208.693 124.273 208.633 124.57 208.508C124.872 208.383 125.133 208.206 125.352 207.977C125.576 207.742 125.729 207.474 125.812 207.172L126.305 208.016C126.19 208.333 126.029 208.625 125.82 208.891C125.617 209.156 125.38 209.385 125.109 209.578C124.839 209.771 124.542 209.919 124.219 210.023C123.901 210.128 123.573 210.177 123.234 210.172C122.766 210.161 122.339 210.055 121.953 209.852C121.568 209.643 121.263 209.354 121.039 208.984C120.815 208.615 120.716 208.188 120.742 207.703C120.768 207.156 120.906 206.701 121.156 206.336C121.411 205.966 121.737 205.674 122.133 205.461C122.534 205.242 122.971 205.086 123.445 204.992C123.919 204.898 124.388 204.852 124.852 204.852L126.398 204.859ZM134.305 208.141L136.062 198H137.914L135.828 210H134.172L134.305 208.141ZM129.367 205.93L129.383 205.766C129.451 205.245 129.573 204.724 129.75 204.203C129.932 203.682 130.177 203.206 130.484 202.773C130.797 202.341 131.177 201.997 131.625 201.742C132.078 201.487 132.609 201.367 133.219 201.383C133.75 201.398 134.193 201.536 134.547 201.797C134.901 202.057 135.177 202.393 135.375 202.805C135.578 203.216 135.716 203.661 135.789 204.141C135.862 204.615 135.885 205.078 135.859 205.531L135.797 206.062C135.714 206.542 135.573 207.026 135.375 207.516C135.177 208.005 134.919 208.453 134.602 208.859C134.289 209.266 133.914 209.589 133.477 209.828C133.044 210.068 132.549 210.18 131.992 210.164C131.435 210.143 130.974 210.003 130.609 209.742C130.245 209.477 129.964 209.135 129.766 208.719C129.568 208.297 129.44 207.844 129.383 207.359C129.326 206.87 129.32 206.393 129.367 205.93ZM131.242 205.75L131.227 205.914C131.195 206.185 131.182 206.474 131.188 206.781C131.193 207.089 131.234 207.383 131.312 207.664C131.396 207.94 131.534 208.169 131.727 208.352C131.924 208.534 132.201 208.633 132.555 208.648C132.966 208.664 133.331 208.57 133.648 208.367C133.971 208.164 134.24 207.898 134.453 207.57C134.667 207.242 134.818 206.893 134.906 206.523L135.125 205.094C135.141 204.833 135.122 204.576 135.07 204.32C135.023 204.065 134.938 203.833 134.812 203.625C134.688 203.417 134.521 203.247 134.312 203.117C134.109 202.982 133.862 202.911 133.57 202.906C133.185 202.891 132.852 202.969 132.57 203.141C132.294 203.312 132.065 203.542 131.883 203.828C131.706 204.115 131.565 204.427 131.461 204.766C131.357 205.104 131.284 205.432 131.242 205.75ZM138.117 205.914L138.141 205.734C138.203 205.151 138.346 204.596 138.57 204.07C138.794 203.544 139.091 203.078 139.461 202.672C139.836 202.26 140.276 201.94 140.781 201.711C141.292 201.482 141.859 201.375 142.484 201.391C143.089 201.401 143.607 201.526 144.039 201.766C144.477 202.005 144.831 202.326 145.102 202.727C145.378 203.122 145.57 203.576 145.68 204.086C145.789 204.591 145.818 205.12 145.766 205.672L145.75 205.852C145.682 206.435 145.534 206.987 145.305 207.508C145.081 208.029 144.781 208.492 144.406 208.898C144.036 209.299 143.596 209.615 143.086 209.844C142.581 210.068 142.018 210.172 141.398 210.156C140.799 210.146 140.281 210.023 139.844 209.789C139.411 209.549 139.057 209.232 138.781 208.836C138.51 208.44 138.32 207.992 138.211 207.492C138.102 206.987 138.07 206.461 138.117 205.914ZM139.969 205.734L139.953 205.914C139.927 206.201 139.924 206.503 139.945 206.82C139.966 207.138 140.029 207.435 140.133 207.711C140.237 207.987 140.398 208.214 140.617 208.391C140.836 208.568 141.128 208.661 141.492 208.672C141.878 208.682 142.214 208.604 142.5 208.438C142.786 208.271 143.026 208.047 143.219 207.766C143.411 207.484 143.565 207.177 143.68 206.844C143.794 206.505 143.87 206.174 143.906 205.852L143.922 205.672C143.953 205.391 143.958 205.091 143.938 204.773C143.917 204.451 143.854 204.148 143.75 203.867C143.646 203.581 143.484 203.349 143.266 203.172C143.047 202.99 142.755 202.893 142.391 202.883C142 202.872 141.661 202.953 141.375 203.125C141.089 203.292 140.849 203.518 140.656 203.805C140.464 204.091 140.31 204.404 140.195 204.742C140.086 205.081 140.01 205.411 139.969 205.734Z" fill="black" fill-opacity="0.8"/>
<path d="M343.75 297.664C344.057 297.669 344.339 297.612 344.594 297.492C344.849 297.372 345.06 297.201 345.227 296.977C345.398 296.753 345.518 296.495 345.586 296.203L347.328 296.195C347.26 296.799 347.047 297.326 346.688 297.773C346.333 298.221 345.891 298.568 345.359 298.812C344.833 299.052 344.276 299.167 343.688 299.156C343.089 299.146 342.576 299.023 342.148 298.789C341.727 298.555 341.385 298.24 341.125 297.844C340.865 297.448 340.682 297 340.578 296.5C340.479 295.995 340.456 295.471 340.508 294.93L340.539 294.648C340.602 294.07 340.74 293.523 340.953 293.008C341.172 292.492 341.461 292.036 341.82 291.641C342.185 291.24 342.615 290.927 343.109 290.703C343.604 290.479 344.161 290.375 344.781 290.391C345.406 290.401 345.945 290.544 346.398 290.82C346.852 291.096 347.198 291.474 347.438 291.953C347.677 292.427 347.794 292.969 347.789 293.578L346.062 293.57C346.062 293.279 346.013 293.008 345.914 292.758C345.82 292.503 345.669 292.297 345.461 292.141C345.258 291.979 344.992 291.893 344.664 291.883C344.279 291.872 343.948 291.948 343.672 292.109C343.401 292.271 343.174 292.49 342.992 292.766C342.815 293.042 342.674 293.346 342.57 293.68C342.471 294.008 342.404 294.333 342.367 294.656L342.336 294.93C342.31 295.206 342.299 295.503 342.305 295.82C342.315 296.133 342.365 296.427 342.453 296.703C342.542 296.979 342.688 297.206 342.891 297.383C343.099 297.56 343.385 297.654 343.75 297.664ZM348.617 294.914L348.641 294.734C348.703 294.151 348.846 293.596 349.07 293.07C349.294 292.544 349.591 292.078 349.961 291.672C350.336 291.26 350.776 290.94 351.281 290.711C351.792 290.482 352.359 290.375 352.984 290.391C353.589 290.401 354.107 290.526 354.539 290.766C354.977 291.005 355.331 291.326 355.602 291.727C355.878 292.122 356.07 292.576 356.18 293.086C356.289 293.591 356.318 294.12 356.266 294.672L356.25 294.852C356.182 295.435 356.034 295.987 355.805 296.508C355.581 297.029 355.281 297.492 354.906 297.898C354.536 298.299 354.096 298.615 353.586 298.844C353.081 299.068 352.518 299.172 351.898 299.156C351.299 299.146 350.781 299.023 350.344 298.789C349.911 298.549 349.557 298.232 349.281 297.836C349.01 297.44 348.82 296.992 348.711 296.492C348.602 295.987 348.57 295.461 348.617 294.914ZM350.469 294.734L350.453 294.914C350.427 295.201 350.424 295.503 350.445 295.82C350.466 296.138 350.529 296.435 350.633 296.711C350.737 296.987 350.898 297.214 351.117 297.391C351.336 297.568 351.628 297.661 351.992 297.672C352.378 297.682 352.714 297.604 353 297.438C353.286 297.271 353.526 297.047 353.719 296.766C353.911 296.484 354.065 296.177 354.18 295.844C354.294 295.505 354.37 295.174 354.406 294.852L354.422 294.672C354.453 294.391 354.458 294.091 354.438 293.773C354.417 293.451 354.354 293.148 354.25 292.867C354.146 292.581 353.984 292.349 353.766 292.172C353.547 291.99 353.255 291.893 352.891 291.883C352.5 291.872 352.161 291.953 351.875 292.125C351.589 292.292 351.349 292.518 351.156 292.805C350.964 293.091 350.81 293.404 350.695 293.742C350.586 294.081 350.51 294.411 350.469 294.734ZM360.031 292.375L358.883 299H357.039L358.508 290.547H360.242L360.031 292.375ZM359.398 294.461H358.789C358.852 293.945 358.971 293.443 359.148 292.953C359.331 292.458 359.576 292.016 359.883 291.625C360.19 291.234 360.565 290.927 361.008 290.703C361.451 290.479 361.964 290.375 362.547 290.391C362.979 290.401 363.341 290.487 363.633 290.648C363.93 290.81 364.167 291.029 364.344 291.305C364.521 291.581 364.638 291.896 364.695 292.25C364.753 292.599 364.763 292.971 364.727 293.367L363.789 299H361.945L362.867 293.523C362.904 293.221 362.893 292.951 362.836 292.711C362.779 292.466 362.659 292.271 362.477 292.125C362.299 291.979 362.044 291.901 361.711 291.891C361.341 291.88 361.021 291.948 360.75 292.094C360.479 292.24 360.253 292.438 360.07 292.688C359.893 292.938 359.747 293.219 359.633 293.531C359.523 293.839 359.445 294.148 359.398 294.461ZM364.57 293.961L363.68 294.156C363.737 293.667 363.857 293.195 364.039 292.742C364.227 292.284 364.474 291.878 364.781 291.523C365.094 291.164 365.464 290.883 365.891 290.68C366.318 290.471 366.802 290.372 367.344 290.383C367.802 290.393 368.188 290.484 368.5 290.656C368.812 290.823 369.057 291.052 369.234 291.344C369.417 291.635 369.536 291.969 369.594 292.344C369.651 292.714 369.656 293.109 369.609 293.531L368.695 299H366.852L367.773 293.516C367.81 293.208 367.799 292.935 367.742 292.695C367.69 292.451 367.576 292.258 367.398 292.117C367.221 291.977 366.964 291.904 366.625 291.898C366.323 291.888 366.052 291.94 365.812 292.055C365.578 292.164 365.375 292.318 365.203 292.516C365.036 292.708 364.901 292.93 364.797 293.18C364.693 293.43 364.617 293.69 364.57 293.961ZM373.594 292.281L371.859 302.25H370.016L372.047 290.547H373.742L373.594 292.281ZM378.5 294.648L378.484 294.812C378.422 295.323 378.299 295.839 378.117 296.359C377.94 296.875 377.698 297.349 377.391 297.781C377.089 298.208 376.716 298.549 376.273 298.805C375.831 299.06 375.31 299.18 374.711 299.164C374.185 299.154 373.742 299.029 373.383 298.789C373.023 298.544 372.737 298.227 372.523 297.836C372.31 297.445 372.159 297.018 372.07 296.555C371.987 296.086 371.956 295.622 371.977 295.164L372.055 294.539C372.138 294.044 372.279 293.549 372.477 293.055C372.68 292.56 372.94 292.109 373.258 291.703C373.576 291.292 373.953 290.966 374.391 290.727C374.828 290.487 375.331 290.375 375.898 290.391C376.477 290.406 376.948 290.544 377.312 290.805C377.677 291.065 377.953 291.404 378.141 291.82C378.333 292.237 378.453 292.693 378.5 293.188C378.552 293.682 378.552 294.169 378.5 294.648ZM376.641 294.805L376.664 294.633C376.69 294.367 376.698 294.078 376.688 293.766C376.682 293.453 376.638 293.159 376.555 292.883C376.471 292.602 376.328 292.37 376.125 292.188C375.927 292.005 375.651 291.909 375.297 291.898C374.974 291.883 374.682 291.935 374.422 292.055C374.161 292.169 373.932 292.331 373.734 292.539C373.536 292.747 373.37 292.984 373.234 293.25C373.104 293.516 373.01 293.792 372.953 294.078L372.711 295.609C372.695 295.953 372.742 296.281 372.852 296.594C372.966 296.901 373.143 297.154 373.383 297.352C373.628 297.549 373.938 297.654 374.312 297.664C374.698 297.674 375.029 297.594 375.305 297.422C375.581 297.25 375.81 297.021 375.992 296.734C376.174 296.443 376.318 296.128 376.422 295.789C376.531 295.445 376.604 295.117 376.641 294.805ZM379.695 294.914L379.719 294.734C379.781 294.151 379.924 293.596 380.148 293.07C380.372 292.544 380.669 292.078 381.039 291.672C381.414 291.26 381.854 290.94 382.359 290.711C382.87 290.482 383.438 290.375 384.062 290.391C384.667 290.401 385.185 290.526 385.617 290.766C386.055 291.005 386.409 291.326 386.68 291.727C386.956 292.122 387.148 292.576 387.258 293.086C387.367 293.591 387.396 294.12 387.344 294.672L387.328 294.852C387.26 295.435 387.112 295.987 386.883 296.508C386.659 297.029 386.359 297.492 385.984 297.898C385.615 298.299 385.174 298.615 384.664 298.844C384.159 299.068 383.596 299.172 382.977 299.156C382.378 299.146 381.859 299.023 381.422 298.789C380.99 298.549 380.635 298.232 380.359 297.836C380.089 297.44 379.898 296.992 379.789 296.492C379.68 295.987 379.648 295.461 379.695 294.914ZM381.547 294.734L381.531 294.914C381.505 295.201 381.503 295.503 381.523 295.82C381.544 296.138 381.607 296.435 381.711 296.711C381.815 296.987 381.977 297.214 382.195 297.391C382.414 297.568 382.706 297.661 383.07 297.672C383.456 297.682 383.792 297.604 384.078 297.438C384.365 297.271 384.604 297.047 384.797 296.766C384.99 296.484 385.143 296.177 385.258 295.844C385.372 295.505 385.448 295.174 385.484 294.852L385.5 294.672C385.531 294.391 385.536 294.091 385.516 293.773C385.495 293.451 385.432 293.148 385.328 292.867C385.224 292.581 385.062 292.349 384.844 292.172C384.625 291.99 384.333 291.893 383.969 291.883C383.578 291.872 383.24 291.953 382.953 292.125C382.667 292.292 382.427 292.518 382.234 292.805C382.042 293.091 381.888 293.404 381.773 293.742C381.664 294.081 381.589 294.411 381.547 294.734ZM391.141 292.25L389.969 299H388.133L389.602 290.547H391.344L391.141 292.25ZM393.891 290.477L393.688 292.234C393.568 292.214 393.445 292.195 393.32 292.18C393.201 292.164 393.081 292.156 392.961 292.156C392.643 292.151 392.357 292.195 392.102 292.289C391.846 292.383 391.622 292.518 391.43 292.695C391.237 292.867 391.076 293.076 390.945 293.32C390.815 293.56 390.714 293.828 390.641 294.125L390.203 294.156C390.255 293.745 390.344 293.318 390.469 292.875C390.599 292.432 390.779 292.021 391.008 291.641C391.237 291.255 391.529 290.945 391.883 290.711C392.237 290.471 392.667 290.357 393.172 290.367C393.292 290.367 393.411 290.378 393.531 290.398C393.651 290.419 393.771 290.445 393.891 290.477ZM399.234 290.547L398.992 291.922H394.367L394.602 290.547H399.234ZM396.297 288.477H398.133L396.734 296.68C396.714 296.862 396.714 297.021 396.734 297.156C396.76 297.292 396.82 297.398 396.914 297.477C397.013 297.549 397.164 297.589 397.367 297.594C397.477 297.599 397.586 297.594 397.695 297.578C397.81 297.562 397.924 297.547 398.039 297.531L397.906 298.984C397.719 299.042 397.526 299.083 397.328 299.109C397.135 299.135 396.94 299.146 396.742 299.141C396.273 299.135 395.896 299.029 395.609 298.82C395.323 298.607 395.122 298.323 395.008 297.969C394.893 297.615 394.857 297.219 394.898 296.781L396.297 288.477ZM404.109 297.305L404.75 293.25C404.781 292.979 404.763 292.734 404.695 292.516C404.628 292.297 404.503 292.125 404.32 292C404.143 291.87 403.909 291.802 403.617 291.797C403.357 291.792 403.112 291.836 402.883 291.93C402.654 292.018 402.458 292.151 402.297 292.328C402.141 292.505 402.036 292.721 401.984 292.977L400.148 292.984C400.18 292.542 400.31 292.156 400.539 291.828C400.773 291.495 401.068 291.221 401.422 291.008C401.781 290.789 402.167 290.63 402.578 290.531C402.995 290.427 403.401 290.378 403.797 290.383C404.37 290.393 404.878 290.516 405.32 290.75C405.763 290.984 406.099 291.315 406.328 291.742C406.562 292.169 406.651 292.685 406.594 293.289L405.977 297.055C405.93 297.352 405.896 297.656 405.875 297.969C405.859 298.276 405.901 298.573 406 298.859L405.984 299L404.164 299.008C404.086 298.732 404.047 298.451 404.047 298.164C404.047 297.872 404.068 297.586 404.109 297.305ZM404.961 293.859L404.773 295.023L403.555 295.016C403.305 295.016 403.047 295.039 402.781 295.086C402.521 295.133 402.276 295.214 402.047 295.328C401.818 295.443 401.625 295.599 401.469 295.797C401.312 295.99 401.216 296.232 401.18 296.523C401.154 296.758 401.18 296.961 401.258 297.133C401.341 297.299 401.466 297.432 401.633 297.531C401.799 297.63 401.997 297.682 402.227 297.688C402.534 297.693 402.836 297.633 403.133 297.508C403.435 297.383 403.695 297.206 403.914 296.977C404.138 296.742 404.292 296.474 404.375 296.172L404.867 297.016C404.753 297.333 404.591 297.625 404.383 297.891C404.18 298.156 403.943 298.385 403.672 298.578C403.401 298.771 403.104 298.919 402.781 299.023C402.464 299.128 402.135 299.177 401.797 299.172C401.328 299.161 400.901 299.055 400.516 298.852C400.13 298.643 399.826 298.354 399.602 297.984C399.378 297.615 399.279 297.188 399.305 296.703C399.331 296.156 399.469 295.701 399.719 295.336C399.974 294.966 400.299 294.674 400.695 294.461C401.096 294.242 401.534 294.086 402.008 293.992C402.482 293.898 402.951 293.852 403.414 293.852L404.961 293.859ZM410.531 292.375L409.383 299H407.539L409.008 290.547H410.742L410.531 292.375ZM409.898 294.461H409.289C409.352 293.945 409.471 293.443 409.648 292.953C409.831 292.458 410.076 292.016 410.383 291.625C410.69 291.234 411.065 290.927 411.508 290.703C411.951 290.479 412.464 290.375 413.047 290.391C413.479 290.401 413.841 290.487 414.133 290.648C414.43 290.81 414.667 291.029 414.844 291.305C415.021 291.581 415.138 291.896 415.195 292.25C415.253 292.599 415.263 292.971 415.227 293.367L414.289 299H412.445L413.367 293.523C413.404 293.221 413.393 292.951 413.336 292.711C413.279 292.466 413.159 292.271 412.977 292.125C412.799 291.979 412.544 291.901 412.211 291.891C411.841 291.88 411.521 291.948 411.25 292.094C410.979 292.24 410.753 292.438 410.57 292.688C410.393 292.938 410.247 293.219 410.133 293.531C410.023 293.839 409.945 294.148 409.898 294.461ZM415.07 293.961L414.18 294.156C414.237 293.667 414.357 293.195 414.539 292.742C414.727 292.284 414.974 291.878 415.281 291.523C415.594 291.164 415.964 290.883 416.391 290.68C416.818 290.471 417.302 290.372 417.844 290.383C418.302 290.393 418.688 290.484 419 290.656C419.312 290.823 419.557 291.052 419.734 291.344C419.917 291.635 420.036 291.969 420.094 292.344C420.151 292.714 420.156 293.109 420.109 293.531L419.195 299H417.352L418.273 293.516C418.31 293.208 418.299 292.935 418.242 292.695C418.19 292.451 418.076 292.258 417.898 292.117C417.721 291.977 417.464 291.904 417.125 291.898C416.823 291.888 416.552 291.94 416.312 292.055C416.078 292.164 415.875 292.318 415.703 292.516C415.536 292.708 415.401 292.93 415.297 293.18C415.193 293.43 415.117 293.69 415.07 293.961ZM424.508 290.547L423.039 299H421.203L422.672 290.547H424.508ZM422.93 288.359C422.924 288.057 423.023 287.81 423.227 287.617C423.43 287.424 423.68 287.326 423.977 287.32C424.263 287.315 424.508 287.404 424.711 287.586C424.919 287.763 425.023 288 425.023 288.297C425.029 288.599 424.927 288.844 424.719 289.031C424.516 289.219 424.268 289.315 423.977 289.32C423.69 289.326 423.445 289.242 423.242 289.07C423.039 288.893 422.935 288.656 422.93 288.359ZM428.828 299.156C428.25 299.146 427.737 299.034 427.289 298.82C426.846 298.602 426.479 298.307 426.188 297.938C425.896 297.562 425.685 297.133 425.555 296.648C425.424 296.159 425.38 295.638 425.422 295.086L425.453 294.766C425.51 294.198 425.648 293.651 425.867 293.125C426.086 292.594 426.378 292.122 426.742 291.711C427.112 291.294 427.547 290.966 428.047 290.727C428.547 290.487 429.104 290.375 429.719 290.391C430.307 290.401 430.805 290.523 431.211 290.758C431.617 290.992 431.94 291.305 432.18 291.695C432.419 292.081 432.578 292.518 432.656 293.008C432.74 293.497 432.753 294.005 432.695 294.531L432.586 295.336H426.242L426.461 293.984L430.938 293.992L430.969 293.828C431.016 293.5 430.997 293.19 430.914 292.898C430.836 292.607 430.69 292.367 430.477 292.18C430.263 291.992 429.977 291.893 429.617 291.883C429.227 291.872 428.891 291.953 428.609 292.125C428.333 292.297 428.104 292.529 427.922 292.82C427.74 293.112 427.596 293.43 427.492 293.773C427.393 294.112 427.323 294.443 427.281 294.766L427.25 295.078C427.219 295.385 427.227 295.69 427.273 295.992C427.32 296.294 427.411 296.57 427.547 296.82C427.682 297.065 427.87 297.266 428.109 297.422C428.349 297.573 428.646 297.654 429 297.664C429.443 297.674 429.844 297.583 430.203 297.391C430.568 297.193 430.898 296.938 431.195 296.625L432.102 297.586C431.862 297.945 431.565 298.242 431.211 298.477C430.862 298.711 430.482 298.885 430.07 299C429.664 299.109 429.25 299.161 428.828 299.156ZM436.297 292.461L435.164 299H433.32L434.789 290.547H436.516L436.297 292.461ZM435.648 294.461L435.086 294.469C435.148 293.964 435.271 293.466 435.453 292.977C435.641 292.482 435.888 292.039 436.195 291.648C436.503 291.253 436.875 290.94 437.312 290.711C437.755 290.482 438.266 290.375 438.844 290.391C439.302 290.401 439.682 290.492 439.984 290.664C440.292 290.836 440.529 291.068 440.695 291.359C440.867 291.651 440.979 291.984 441.031 292.359C441.083 292.734 441.086 293.128 441.039 293.539L440.133 299H438.281L439.203 293.516C439.234 293.214 439.224 292.943 439.172 292.703C439.12 292.458 439.005 292.266 438.828 292.125C438.651 291.979 438.396 291.904 438.062 291.898C437.698 291.888 437.378 291.956 437.102 292.102C436.826 292.247 436.589 292.448 436.391 292.703C436.193 292.953 436.031 293.232 435.906 293.539C435.786 293.846 435.701 294.154 435.648 294.461ZM447.219 290.547L446.977 291.922H442.352L442.586 290.547H447.219ZM444.281 288.477H446.117L444.719 296.68C444.698 296.862 444.698 297.021 444.719 297.156C444.745 297.292 444.805 297.398 444.898 297.477C444.997 297.549 445.148 297.589 445.352 297.594C445.461 297.599 445.57 297.594 445.68 297.578C445.794 297.562 445.909 297.547 446.023 297.531L445.891 298.984C445.703 299.042 445.51 299.083 445.312 299.109C445.12 299.135 444.924 299.146 444.727 299.141C444.258 299.135 443.88 299.029 443.594 298.82C443.307 298.607 443.107 298.323 442.992 297.969C442.878 297.615 442.841 297.219 442.883 296.781L444.281 288.477ZM447.352 294.914L447.375 294.734C447.438 294.151 447.581 293.596 447.805 293.07C448.029 292.544 448.326 292.078 448.695 291.672C449.07 291.26 449.51 290.94 450.016 290.711C450.526 290.482 451.094 290.375 451.719 290.391C452.323 290.401 452.841 290.526 453.273 290.766C453.711 291.005 454.065 291.326 454.336 291.727C454.612 292.122 454.805 292.576 454.914 293.086C455.023 293.591 455.052 294.12 455 294.672L454.984 294.852C454.917 295.435 454.768 295.987 454.539 296.508C454.315 297.029 454.016 297.492 453.641 297.898C453.271 298.299 452.831 298.615 452.32 298.844C451.815 299.068 451.253 299.172 450.633 299.156C450.034 299.146 449.516 299.023 449.078 298.789C448.646 298.549 448.292 298.232 448.016 297.836C447.745 297.44 447.555 296.992 447.445 296.492C447.336 295.987 447.305 295.461 447.352 294.914ZM449.203 294.734L449.188 294.914C449.161 295.201 449.159 295.503 449.18 295.82C449.201 296.138 449.263 296.435 449.367 296.711C449.471 296.987 449.633 297.214 449.852 297.391C450.07 297.568 450.362 297.661 450.727 297.672C451.112 297.682 451.448 297.604 451.734 297.438C452.021 297.271 452.26 297.047 452.453 296.766C452.646 296.484 452.799 296.177 452.914 295.844C453.029 295.505 453.104 295.174 453.141 294.852L453.156 294.672C453.188 294.391 453.193 294.091 453.172 293.773C453.151 293.451 453.089 293.148 452.984 292.867C452.88 292.581 452.719 292.349 452.5 292.172C452.281 291.99 451.99 291.893 451.625 291.883C451.234 291.872 450.896 291.953 450.609 292.125C450.323 292.292 450.083 292.518 449.891 292.805C449.698 293.091 449.544 293.404 449.43 293.742C449.32 294.081 449.245 294.411 449.203 294.734Z" fill="black" fill-opacity="0.8"/>
<g opacity="0.7">
<path d="M39.7715 57.4219V66H38.6875V58.7754L36.502 59.5723V58.5938L39.6016 57.4219H39.7715Z" fill="black"/>
<rect x="32.5" y="55.5" width="13" height="13" rx="6.5" stroke="black"/>
</g>
<g opacity="0.7">
<path d="M89.7988 207.109V208H84.2148V207.221L87.0098 204.109C87.3535 203.727 87.6191 203.402 87.8066 203.137C87.998 202.867 88.1309 202.627 88.2051 202.416C88.2832 202.201 88.3223 201.982 88.3223 201.76C88.3223 201.479 88.2637 201.225 88.1465 200.998C88.0332 200.768 87.8652 200.584 87.6426 200.447C87.4199 200.311 87.1504 200.242 86.834 200.242C86.4551 200.242 86.1387 200.316 85.8848 200.465C85.6348 200.609 85.4473 200.812 85.3223 201.074C85.1973 201.336 85.1348 201.637 85.1348 201.977H84.0508C84.0508 201.496 84.1562 201.057 84.3672 200.658C84.5781 200.26 84.8906 199.943 85.3047 199.709C85.7188 199.471 86.2285 199.352 86.834 199.352C87.373 199.352 87.834 199.447 88.2168 199.639C88.5996 199.826 88.8926 200.092 89.0957 200.436C89.3027 200.775 89.4062 201.174 89.4062 201.631C89.4062 201.881 89.3633 202.135 89.2773 202.393C89.1953 202.646 89.0801 202.9 88.9316 203.154C88.7871 203.408 88.6172 203.658 88.4219 203.904C88.2305 204.15 88.0254 204.393 87.8066 204.631L85.5215 207.109H89.7988Z" fill="black"/>
<rect x="80.5" y="197.5" width="13" height="13" rx="6.5" stroke="black"/>
</g>
<g opacity="0.7">
<path d="M326.791 292.201H327.564C327.943 292.201 328.256 292.139 328.502 292.014C328.752 291.885 328.938 291.711 329.059 291.492C329.184 291.27 329.246 291.02 329.246 290.742C329.246 290.414 329.191 290.139 329.082 289.916C328.973 289.693 328.809 289.525 328.59 289.412C328.371 289.299 328.094 289.242 327.758 289.242C327.453 289.242 327.184 289.303 326.949 289.424C326.719 289.541 326.537 289.709 326.404 289.928C326.275 290.146 326.211 290.404 326.211 290.701H325.127C325.127 290.268 325.236 289.873 325.455 289.518C325.674 289.162 325.98 288.879 326.375 288.668C326.773 288.457 327.234 288.352 327.758 288.352C328.273 288.352 328.725 288.443 329.111 288.627C329.498 288.807 329.799 289.076 330.014 289.436C330.229 289.791 330.336 290.234 330.336 290.766C330.336 290.98 330.285 291.211 330.184 291.457C330.086 291.699 329.932 291.926 329.721 292.137C329.514 292.348 329.244 292.521 328.912 292.658C328.58 292.791 328.182 292.857 327.717 292.857H326.791V292.201ZM326.791 293.092V292.441H327.717C328.26 292.441 328.709 292.506 329.064 292.635C329.42 292.764 329.699 292.936 329.902 293.15C330.109 293.365 330.254 293.602 330.336 293.859C330.422 294.113 330.465 294.367 330.465 294.621C330.465 295.02 330.396 295.373 330.26 295.682C330.127 295.99 329.938 296.252 329.691 296.467C329.449 296.682 329.164 296.844 328.836 296.953C328.508 297.062 328.15 297.117 327.764 297.117C327.393 297.117 327.043 297.064 326.715 296.959C326.391 296.854 326.104 296.701 325.854 296.502C325.604 296.299 325.408 296.051 325.268 295.758C325.127 295.461 325.057 295.123 325.057 294.744H326.141C326.141 295.041 326.205 295.301 326.334 295.523C326.467 295.746 326.654 295.92 326.896 296.045C327.143 296.166 327.432 296.227 327.764 296.227C328.096 296.227 328.381 296.17 328.619 296.057C328.861 295.939 329.047 295.764 329.176 295.529C329.309 295.295 329.375 295 329.375 294.645C329.375 294.289 329.301 293.998 329.152 293.771C329.004 293.541 328.793 293.371 328.52 293.262C328.25 293.148 327.932 293.092 327.564 293.092H326.791Z" fill="black"/>
<rect x="321.5" y="286.5" width="13" height="13" rx="6.5" stroke="black"/>
</g>
</svg>
